M48
; DRILL file {KiCad 5.1.5+dfsg1-2build2} date 2021年09月03日 星期五 17时34分39秒
; FORMAT={-:-/ absolute / inch / decimal}
; #@! TF.CreationDate,2021-09-03T17:34:39+08:00
; #@! TF.GenerationSoftware,Kicad,Pcbnew,5.1.5+dfsg1-2build2
; #@! TF.FileFunction,Plated,1,2,PTH
FMAT,2
INCH
T1C0.0157
T2C0.0197
T3C0.0236
T4C0.0315
T5C0.0394
%
G90
G05
T1
X4.291Y-3.713
X4.294Y-4.403
X4.295Y-4.603
X4.33Y-4.703
X4.346Y-2.874
X4.354Y-3.024
X4.357Y-3.272
X4.464Y-4.353
X4.471Y-4.153
X4.471Y-4.268
X4.4724Y-4.203
X4.5Y-4.503
X4.5009Y-4.0725
X4.502Y-3.074
X4.5055Y-2.8986
X4.5055Y-2.974
X4.5295Y-4.0405
X4.531Y-3.224
X4.534Y-2.798
X4.5629Y-2.7672
X4.5865Y-4.101
X4.604Y-3.374
X4.605Y-4.653
X4.6161Y-4.136
X4.62Y-2.827
X4.627Y-3.795
X4.6447Y-4.1008
X4.6496Y-2.868
X4.673Y-3.274
X4.677Y-3.766
X4.6781Y-2.832
X4.696Y-4.553
X4.77Y-3.79
X4.773Y-3.866
X4.838Y-4.328
X4.838Y-4.703
X4.854Y-3.7195
X4.873Y-4.228
X4.905Y-3.487
X4.911Y-3.424
X4.9143Y-4.1403
X4.915Y-2.99
X4.9175Y-3.737
X4.92Y-3.675
X4.924Y-4.042
X4.939Y-3.455
X4.954Y-3.764
X4.987Y-3.724
X5.038Y-3.7633
X5.072Y-3.399
X5.09Y-3.783
X5.12Y-3.279
X5.152Y-4.567
X5.2306Y-3.5213
X5.234Y-3.279
X5.255Y-3.739
X5.2697Y-4.043
X5.27Y-3.5213
X5.277Y-3.883
X5.28Y-3.68
X5.293Y-3.257
X5.3021Y-3.8034
X5.306Y-4.2139
X5.3146Y-3.7346
X5.316Y-4.058
X5.32Y-3.882
X5.325Y-2.736
X5.329Y-2.901
X5.329Y-3.029
X5.347Y-3.559
X5.347Y-3.7614
X5.3686Y-4.1907
X5.374Y-4.052
X5.378Y-3.733
X5.387Y-2.902
X5.388Y-2.993
X5.392Y-3.557
X5.399Y-3.257
X5.413Y-2.7
X5.4144Y-3.8556
X5.418Y-4.0225
X5.438Y-3.555
X5.4467Y-3.7259
X5.4673Y-3.8007
X5.481Y-4.043
X5.516Y-4.326
X5.5345Y-4.71
X5.547Y-4.209
X5.5606Y-4.759
X5.584Y-3.517
X5.5854Y-3.193
X5.588Y-4.291
X5.623Y-3.24
X5.6354Y-4.66
X5.6357Y-4.3603
X5.749Y-3.29
X5.7497Y-4.4583
X5.755Y-2.84
X5.76Y-2.94
X5.761Y-3.04
X5.7647Y-3.5341
X5.771Y-4.104
X5.7767Y-4.359
X5.7799Y-2.89
X5.7799Y-3.09
X5.787Y-4.4133
X5.788Y-4.508
X5.803Y-4.042
X5.804Y-3.532
X5.8085Y-2.753
X5.8085Y-3.19
X5.823Y-4.436
X5.844Y-3.34
X5.852Y-4.498
X5.854Y-4.297
X5.8656Y-2.804
X5.885Y-4.271
X5.889Y-4.558
X5.889Y-4.648
X5.894Y-4.456
X5.896Y-3.24
X5.899Y-2.842
X5.903Y-4.042
X5.927Y-4.334
X5.9324Y-2.793
X5.9609Y-2.7625
X5.967Y-4.456
X5.975Y-4.258
X5.978Y-3.39
X5.982Y-4.608
X5.983Y-4.042
X6.123Y-2.89
X6.132Y-3.39
X6.211Y-4.677
X6.301Y-3.511
X6.315Y-3.221
X6.333Y-3.8327
X6.355Y-3.348
X6.398Y-3.419
T2
X5.443Y-4.446
X5.443Y-4.5208
T4
X5.259Y-4.287
X5.4511Y-4.287
T5
X4.3732Y-3.9409
X4.3732Y-4.8858
X4.4732Y-3.9409
X4.4732Y-4.8858
X4.5732Y-3.9409
X4.5732Y-4.8858
X4.6732Y-3.9409
X4.6732Y-4.8858
X4.7732Y-3.9409
X4.7732Y-4.8858
X4.8732Y-3.9409
X4.8732Y-4.8858
X4.9732Y-3.9409
X4.9732Y-4.8858
X5.0732Y-3.9409
X5.0732Y-4.8858
X4.3732Y-2.6772
X4.3732Y-3.622
X4.4732Y-2.6772
X4.4732Y-3.622
X4.5732Y-2.6772
X4.5732Y-3.622
X4.6732Y-2.6772
X4.6732Y-3.622
X4.7732Y-2.6772
X4.7732Y-3.622
X4.8732Y-2.6772
X4.8732Y-3.622
X4.9732Y-2.6772
X4.9732Y-3.622
X5.0732Y-2.6772
X5.0732Y-3.622
X5.637Y-3.9409
X5.637Y-4.8858
X5.737Y-3.9409
X5.737Y-4.8858
X5.837Y-3.9409
X5.837Y-4.8858
X5.937Y-3.9409
X5.937Y-4.8858
X6.037Y-3.9409
X6.037Y-4.8858
X6.137Y-3.9409
X6.137Y-4.8858
X6.237Y-3.9409
X6.237Y-4.8858
X6.337Y-3.9409
X6.337Y-4.8858
X5.206Y-4.629
X5.306Y-4.629
X5.406Y-4.629
X5.506Y-4.629
X5.637Y-2.6772
X5.637Y-3.622
X5.737Y-2.6772
X5.737Y-3.622
X5.837Y-2.6772
X5.837Y-3.622
X5.937Y-2.6772
X5.937Y-3.622
X6.037Y-2.6772
X6.037Y-3.622
X6.137Y-2.6772
X6.137Y-3.622
X6.237Y-2.6772
X6.237Y-3.622
X6.337Y-2.6772
X6.337Y-3.622
X6.203Y-4.191
X6.203Y-4.291
X6.203Y-4.391
X6.203Y-4.491
X6.203Y-2.875
X6.203Y-2.975
X6.203Y-3.075
X6.203Y-3.175
T3
G00X5.1879Y-2.6535
M15
G01X5.1879Y-2.6299
M16
G05
G00X5.1879Y-2.8279
M15
G01X5.1879Y-2.7846
M16
G05
G00X5.5281Y-2.6535
M15
G01X5.5281Y-2.6299
M16
G05
G00X5.5281Y-2.8279
M15
G01X5.5281Y-2.7846
M16
G05
T0
M30
