G04 #@! TF.GenerationSoftware,KiCad,Pcbnew,5.1.5+dfsg1-2build2*
G04 #@! TF.CreationDate,2021-09-03T17:34:21+08:00*
G04 #@! TF.ProjectId,lattice_screen,6c617474-6963-4655-9f73-637265656e2e,rev?*
G04 #@! TF.SameCoordinates,Original*
G04 #@! TF.FileFunction,Soldermask,Bot*
G04 #@! TF.FilePolarity,Negative*
%FSLAX46Y46*%
G04 Gerber Fmt 4.6, Leading zero omitted, Abs format (unit mm)*
G04 Created by KiCad (PCBNEW 5.1.5+dfsg1-2build2) date 2021-09-03 17:34:21*
%MOMM*%
%LPD*%
G04 APERTURE LIST*
%ADD10C,0.100000*%
G04 APERTURE END LIST*
D10*
G36*
X161073512Y-123203927D02*
G01*
X161222812Y-123233624D01*
X161386784Y-123301544D01*
X161534354Y-123400147D01*
X161659853Y-123525646D01*
X161758456Y-123673216D01*
X161826376Y-123837188D01*
X161861000Y-124011259D01*
X161861000Y-124188741D01*
X161826376Y-124362812D01*
X161758456Y-124526784D01*
X161659853Y-124674354D01*
X161534354Y-124799853D01*
X161386784Y-124898456D01*
X161222812Y-124966376D01*
X161073512Y-124996073D01*
X161048742Y-125001000D01*
X160871258Y-125001000D01*
X160846488Y-124996073D01*
X160697188Y-124966376D01*
X160533216Y-124898456D01*
X160385646Y-124799853D01*
X160260147Y-124674354D01*
X160161544Y-124526784D01*
X160093624Y-124362812D01*
X160059000Y-124188741D01*
X160059000Y-124011259D01*
X160093624Y-123837188D01*
X160161544Y-123673216D01*
X160260147Y-123525646D01*
X160385646Y-123400147D01*
X160533216Y-123301544D01*
X160697188Y-123233624D01*
X160846488Y-123203927D01*
X160871258Y-123199000D01*
X161048742Y-123199000D01*
X161073512Y-123203927D01*
G37*
G36*
X111193512Y-123203927D02*
G01*
X111342812Y-123233624D01*
X111506784Y-123301544D01*
X111654354Y-123400147D01*
X111779853Y-123525646D01*
X111878456Y-123673216D01*
X111946376Y-123837188D01*
X111981000Y-124011259D01*
X111981000Y-124188741D01*
X111946376Y-124362812D01*
X111878456Y-124526784D01*
X111779853Y-124674354D01*
X111654354Y-124799853D01*
X111506784Y-124898456D01*
X111342812Y-124966376D01*
X111193512Y-124996073D01*
X111168742Y-125001000D01*
X110991258Y-125001000D01*
X110966488Y-124996073D01*
X110817188Y-124966376D01*
X110653216Y-124898456D01*
X110505646Y-124799853D01*
X110380147Y-124674354D01*
X110281544Y-124526784D01*
X110213624Y-124362812D01*
X110179000Y-124188741D01*
X110179000Y-124011259D01*
X110213624Y-123837188D01*
X110281544Y-123673216D01*
X110380147Y-123525646D01*
X110505646Y-123400147D01*
X110653216Y-123301544D01*
X110817188Y-123233624D01*
X110966488Y-123203927D01*
X110991258Y-123199000D01*
X111168742Y-123199000D01*
X111193512Y-123203927D01*
G37*
G36*
X143293512Y-123203927D02*
G01*
X143442812Y-123233624D01*
X143606784Y-123301544D01*
X143754354Y-123400147D01*
X143879853Y-123525646D01*
X143978456Y-123673216D01*
X144046376Y-123837188D01*
X144081000Y-124011259D01*
X144081000Y-124188741D01*
X144046376Y-124362812D01*
X143978456Y-124526784D01*
X143879853Y-124674354D01*
X143754354Y-124799853D01*
X143606784Y-124898456D01*
X143442812Y-124966376D01*
X143293512Y-124996073D01*
X143268742Y-125001000D01*
X143091258Y-125001000D01*
X143066488Y-124996073D01*
X142917188Y-124966376D01*
X142753216Y-124898456D01*
X142605646Y-124799853D01*
X142480147Y-124674354D01*
X142381544Y-124526784D01*
X142313624Y-124362812D01*
X142279000Y-124188741D01*
X142279000Y-124011259D01*
X142313624Y-123837188D01*
X142381544Y-123673216D01*
X142480147Y-123525646D01*
X142605646Y-123400147D01*
X142753216Y-123301544D01*
X142917188Y-123233624D01*
X143066488Y-123203927D01*
X143091258Y-123199000D01*
X143268742Y-123199000D01*
X143293512Y-123203927D01*
G37*
G36*
X145833512Y-123203927D02*
G01*
X145982812Y-123233624D01*
X146146784Y-123301544D01*
X146294354Y-123400147D01*
X146419853Y-123525646D01*
X146518456Y-123673216D01*
X146586376Y-123837188D01*
X146621000Y-124011259D01*
X146621000Y-124188741D01*
X146586376Y-124362812D01*
X146518456Y-124526784D01*
X146419853Y-124674354D01*
X146294354Y-124799853D01*
X146146784Y-124898456D01*
X145982812Y-124966376D01*
X145833512Y-124996073D01*
X145808742Y-125001000D01*
X145631258Y-125001000D01*
X145606488Y-124996073D01*
X145457188Y-124966376D01*
X145293216Y-124898456D01*
X145145646Y-124799853D01*
X145020147Y-124674354D01*
X144921544Y-124526784D01*
X144853624Y-124362812D01*
X144819000Y-124188741D01*
X144819000Y-124011259D01*
X144853624Y-123837188D01*
X144921544Y-123673216D01*
X145020147Y-123525646D01*
X145145646Y-123400147D01*
X145293216Y-123301544D01*
X145457188Y-123233624D01*
X145606488Y-123203927D01*
X145631258Y-123199000D01*
X145808742Y-123199000D01*
X145833512Y-123203927D01*
G37*
G36*
X148373512Y-123203927D02*
G01*
X148522812Y-123233624D01*
X148686784Y-123301544D01*
X148834354Y-123400147D01*
X148959853Y-123525646D01*
X149058456Y-123673216D01*
X149126376Y-123837188D01*
X149161000Y-124011259D01*
X149161000Y-124188741D01*
X149126376Y-124362812D01*
X149058456Y-124526784D01*
X148959853Y-124674354D01*
X148834354Y-124799853D01*
X148686784Y-124898456D01*
X148522812Y-124966376D01*
X148373512Y-124996073D01*
X148348742Y-125001000D01*
X148171258Y-125001000D01*
X148146488Y-124996073D01*
X147997188Y-124966376D01*
X147833216Y-124898456D01*
X147685646Y-124799853D01*
X147560147Y-124674354D01*
X147461544Y-124526784D01*
X147393624Y-124362812D01*
X147359000Y-124188741D01*
X147359000Y-124011259D01*
X147393624Y-123837188D01*
X147461544Y-123673216D01*
X147560147Y-123525646D01*
X147685646Y-123400147D01*
X147833216Y-123301544D01*
X147997188Y-123233624D01*
X148146488Y-123203927D01*
X148171258Y-123199000D01*
X148348742Y-123199000D01*
X148373512Y-123203927D01*
G37*
G36*
X150913512Y-123203927D02*
G01*
X151062812Y-123233624D01*
X151226784Y-123301544D01*
X151374354Y-123400147D01*
X151499853Y-123525646D01*
X151598456Y-123673216D01*
X151666376Y-123837188D01*
X151701000Y-124011259D01*
X151701000Y-124188741D01*
X151666376Y-124362812D01*
X151598456Y-124526784D01*
X151499853Y-124674354D01*
X151374354Y-124799853D01*
X151226784Y-124898456D01*
X151062812Y-124966376D01*
X150913512Y-124996073D01*
X150888742Y-125001000D01*
X150711258Y-125001000D01*
X150686488Y-124996073D01*
X150537188Y-124966376D01*
X150373216Y-124898456D01*
X150225646Y-124799853D01*
X150100147Y-124674354D01*
X150001544Y-124526784D01*
X149933624Y-124362812D01*
X149899000Y-124188741D01*
X149899000Y-124011259D01*
X149933624Y-123837188D01*
X150001544Y-123673216D01*
X150100147Y-123525646D01*
X150225646Y-123400147D01*
X150373216Y-123301544D01*
X150537188Y-123233624D01*
X150686488Y-123203927D01*
X150711258Y-123199000D01*
X150888742Y-123199000D01*
X150913512Y-123203927D01*
G37*
G36*
X153453512Y-123203927D02*
G01*
X153602812Y-123233624D01*
X153766784Y-123301544D01*
X153914354Y-123400147D01*
X154039853Y-123525646D01*
X154138456Y-123673216D01*
X154206376Y-123837188D01*
X154241000Y-124011259D01*
X154241000Y-124188741D01*
X154206376Y-124362812D01*
X154138456Y-124526784D01*
X154039853Y-124674354D01*
X153914354Y-124799853D01*
X153766784Y-124898456D01*
X153602812Y-124966376D01*
X153453512Y-124996073D01*
X153428742Y-125001000D01*
X153251258Y-125001000D01*
X153226488Y-124996073D01*
X153077188Y-124966376D01*
X152913216Y-124898456D01*
X152765646Y-124799853D01*
X152640147Y-124674354D01*
X152541544Y-124526784D01*
X152473624Y-124362812D01*
X152439000Y-124188741D01*
X152439000Y-124011259D01*
X152473624Y-123837188D01*
X152541544Y-123673216D01*
X152640147Y-123525646D01*
X152765646Y-123400147D01*
X152913216Y-123301544D01*
X153077188Y-123233624D01*
X153226488Y-123203927D01*
X153251258Y-123199000D01*
X153428742Y-123199000D01*
X153453512Y-123203927D01*
G37*
G36*
X155993512Y-123203927D02*
G01*
X156142812Y-123233624D01*
X156306784Y-123301544D01*
X156454354Y-123400147D01*
X156579853Y-123525646D01*
X156678456Y-123673216D01*
X156746376Y-123837188D01*
X156781000Y-124011259D01*
X156781000Y-124188741D01*
X156746376Y-124362812D01*
X156678456Y-124526784D01*
X156579853Y-124674354D01*
X156454354Y-124799853D01*
X156306784Y-124898456D01*
X156142812Y-124966376D01*
X155993512Y-124996073D01*
X155968742Y-125001000D01*
X155791258Y-125001000D01*
X155766488Y-124996073D01*
X155617188Y-124966376D01*
X155453216Y-124898456D01*
X155305646Y-124799853D01*
X155180147Y-124674354D01*
X155081544Y-124526784D01*
X155013624Y-124362812D01*
X154979000Y-124188741D01*
X154979000Y-124011259D01*
X155013624Y-123837188D01*
X155081544Y-123673216D01*
X155180147Y-123525646D01*
X155305646Y-123400147D01*
X155453216Y-123301544D01*
X155617188Y-123233624D01*
X155766488Y-123203927D01*
X155791258Y-123199000D01*
X155968742Y-123199000D01*
X155993512Y-123203927D01*
G37*
G36*
X158533512Y-123203927D02*
G01*
X158682812Y-123233624D01*
X158846784Y-123301544D01*
X158994354Y-123400147D01*
X159119853Y-123525646D01*
X159218456Y-123673216D01*
X159286376Y-123837188D01*
X159321000Y-124011259D01*
X159321000Y-124188741D01*
X159286376Y-124362812D01*
X159218456Y-124526784D01*
X159119853Y-124674354D01*
X158994354Y-124799853D01*
X158846784Y-124898456D01*
X158682812Y-124966376D01*
X158533512Y-124996073D01*
X158508742Y-125001000D01*
X158331258Y-125001000D01*
X158306488Y-124996073D01*
X158157188Y-124966376D01*
X157993216Y-124898456D01*
X157845646Y-124799853D01*
X157720147Y-124674354D01*
X157621544Y-124526784D01*
X157553624Y-124362812D01*
X157519000Y-124188741D01*
X157519000Y-124011259D01*
X157553624Y-123837188D01*
X157621544Y-123673216D01*
X157720147Y-123525646D01*
X157845646Y-123400147D01*
X157993216Y-123301544D01*
X158157188Y-123233624D01*
X158306488Y-123203927D01*
X158331258Y-123199000D01*
X158508742Y-123199000D01*
X158533512Y-123203927D01*
G37*
G36*
X113733512Y-123203927D02*
G01*
X113882812Y-123233624D01*
X114046784Y-123301544D01*
X114194354Y-123400147D01*
X114319853Y-123525646D01*
X114418456Y-123673216D01*
X114486376Y-123837188D01*
X114521000Y-124011259D01*
X114521000Y-124188741D01*
X114486376Y-124362812D01*
X114418456Y-124526784D01*
X114319853Y-124674354D01*
X114194354Y-124799853D01*
X114046784Y-124898456D01*
X113882812Y-124966376D01*
X113733512Y-124996073D01*
X113708742Y-125001000D01*
X113531258Y-125001000D01*
X113506488Y-124996073D01*
X113357188Y-124966376D01*
X113193216Y-124898456D01*
X113045646Y-124799853D01*
X112920147Y-124674354D01*
X112821544Y-124526784D01*
X112753624Y-124362812D01*
X112719000Y-124188741D01*
X112719000Y-124011259D01*
X112753624Y-123837188D01*
X112821544Y-123673216D01*
X112920147Y-123525646D01*
X113045646Y-123400147D01*
X113193216Y-123301544D01*
X113357188Y-123233624D01*
X113506488Y-123203927D01*
X113531258Y-123199000D01*
X113708742Y-123199000D01*
X113733512Y-123203927D01*
G37*
G36*
X116273512Y-123203927D02*
G01*
X116422812Y-123233624D01*
X116586784Y-123301544D01*
X116734354Y-123400147D01*
X116859853Y-123525646D01*
X116958456Y-123673216D01*
X117026376Y-123837188D01*
X117061000Y-124011259D01*
X117061000Y-124188741D01*
X117026376Y-124362812D01*
X116958456Y-124526784D01*
X116859853Y-124674354D01*
X116734354Y-124799853D01*
X116586784Y-124898456D01*
X116422812Y-124966376D01*
X116273512Y-124996073D01*
X116248742Y-125001000D01*
X116071258Y-125001000D01*
X116046488Y-124996073D01*
X115897188Y-124966376D01*
X115733216Y-124898456D01*
X115585646Y-124799853D01*
X115460147Y-124674354D01*
X115361544Y-124526784D01*
X115293624Y-124362812D01*
X115259000Y-124188741D01*
X115259000Y-124011259D01*
X115293624Y-123837188D01*
X115361544Y-123673216D01*
X115460147Y-123525646D01*
X115585646Y-123400147D01*
X115733216Y-123301544D01*
X115897188Y-123233624D01*
X116046488Y-123203927D01*
X116071258Y-123199000D01*
X116248742Y-123199000D01*
X116273512Y-123203927D01*
G37*
G36*
X118813512Y-123203927D02*
G01*
X118962812Y-123233624D01*
X119126784Y-123301544D01*
X119274354Y-123400147D01*
X119399853Y-123525646D01*
X119498456Y-123673216D01*
X119566376Y-123837188D01*
X119601000Y-124011259D01*
X119601000Y-124188741D01*
X119566376Y-124362812D01*
X119498456Y-124526784D01*
X119399853Y-124674354D01*
X119274354Y-124799853D01*
X119126784Y-124898456D01*
X118962812Y-124966376D01*
X118813512Y-124996073D01*
X118788742Y-125001000D01*
X118611258Y-125001000D01*
X118586488Y-124996073D01*
X118437188Y-124966376D01*
X118273216Y-124898456D01*
X118125646Y-124799853D01*
X118000147Y-124674354D01*
X117901544Y-124526784D01*
X117833624Y-124362812D01*
X117799000Y-124188741D01*
X117799000Y-124011259D01*
X117833624Y-123837188D01*
X117901544Y-123673216D01*
X118000147Y-123525646D01*
X118125646Y-123400147D01*
X118273216Y-123301544D01*
X118437188Y-123233624D01*
X118586488Y-123203927D01*
X118611258Y-123199000D01*
X118788742Y-123199000D01*
X118813512Y-123203927D01*
G37*
G36*
X121353512Y-123203927D02*
G01*
X121502812Y-123233624D01*
X121666784Y-123301544D01*
X121814354Y-123400147D01*
X121939853Y-123525646D01*
X122038456Y-123673216D01*
X122106376Y-123837188D01*
X122141000Y-124011259D01*
X122141000Y-124188741D01*
X122106376Y-124362812D01*
X122038456Y-124526784D01*
X121939853Y-124674354D01*
X121814354Y-124799853D01*
X121666784Y-124898456D01*
X121502812Y-124966376D01*
X121353512Y-124996073D01*
X121328742Y-125001000D01*
X121151258Y-125001000D01*
X121126488Y-124996073D01*
X120977188Y-124966376D01*
X120813216Y-124898456D01*
X120665646Y-124799853D01*
X120540147Y-124674354D01*
X120441544Y-124526784D01*
X120373624Y-124362812D01*
X120339000Y-124188741D01*
X120339000Y-124011259D01*
X120373624Y-123837188D01*
X120441544Y-123673216D01*
X120540147Y-123525646D01*
X120665646Y-123400147D01*
X120813216Y-123301544D01*
X120977188Y-123233624D01*
X121126488Y-123203927D01*
X121151258Y-123199000D01*
X121328742Y-123199000D01*
X121353512Y-123203927D01*
G37*
G36*
X123893512Y-123203927D02*
G01*
X124042812Y-123233624D01*
X124206784Y-123301544D01*
X124354354Y-123400147D01*
X124479853Y-123525646D01*
X124578456Y-123673216D01*
X124646376Y-123837188D01*
X124681000Y-124011259D01*
X124681000Y-124188741D01*
X124646376Y-124362812D01*
X124578456Y-124526784D01*
X124479853Y-124674354D01*
X124354354Y-124799853D01*
X124206784Y-124898456D01*
X124042812Y-124966376D01*
X123893512Y-124996073D01*
X123868742Y-125001000D01*
X123691258Y-125001000D01*
X123666488Y-124996073D01*
X123517188Y-124966376D01*
X123353216Y-124898456D01*
X123205646Y-124799853D01*
X123080147Y-124674354D01*
X122981544Y-124526784D01*
X122913624Y-124362812D01*
X122879000Y-124188741D01*
X122879000Y-124011259D01*
X122913624Y-123837188D01*
X122981544Y-123673216D01*
X123080147Y-123525646D01*
X123205646Y-123400147D01*
X123353216Y-123301544D01*
X123517188Y-123233624D01*
X123666488Y-123203927D01*
X123691258Y-123199000D01*
X123868742Y-123199000D01*
X123893512Y-123203927D01*
G37*
G36*
X126433512Y-123203927D02*
G01*
X126582812Y-123233624D01*
X126746784Y-123301544D01*
X126894354Y-123400147D01*
X127019853Y-123525646D01*
X127118456Y-123673216D01*
X127186376Y-123837188D01*
X127221000Y-124011259D01*
X127221000Y-124188741D01*
X127186376Y-124362812D01*
X127118456Y-124526784D01*
X127019853Y-124674354D01*
X126894354Y-124799853D01*
X126746784Y-124898456D01*
X126582812Y-124966376D01*
X126433512Y-124996073D01*
X126408742Y-125001000D01*
X126231258Y-125001000D01*
X126206488Y-124996073D01*
X126057188Y-124966376D01*
X125893216Y-124898456D01*
X125745646Y-124799853D01*
X125620147Y-124674354D01*
X125521544Y-124526784D01*
X125453624Y-124362812D01*
X125419000Y-124188741D01*
X125419000Y-124011259D01*
X125453624Y-123837188D01*
X125521544Y-123673216D01*
X125620147Y-123525646D01*
X125745646Y-123400147D01*
X125893216Y-123301544D01*
X126057188Y-123233624D01*
X126206488Y-123203927D01*
X126231258Y-123199000D01*
X126408742Y-123199000D01*
X126433512Y-123203927D01*
G37*
G36*
X128973512Y-123203927D02*
G01*
X129122812Y-123233624D01*
X129286784Y-123301544D01*
X129434354Y-123400147D01*
X129559853Y-123525646D01*
X129658456Y-123673216D01*
X129726376Y-123837188D01*
X129761000Y-124011259D01*
X129761000Y-124188741D01*
X129726376Y-124362812D01*
X129658456Y-124526784D01*
X129559853Y-124674354D01*
X129434354Y-124799853D01*
X129286784Y-124898456D01*
X129122812Y-124966376D01*
X128973512Y-124996073D01*
X128948742Y-125001000D01*
X128771258Y-125001000D01*
X128746488Y-124996073D01*
X128597188Y-124966376D01*
X128433216Y-124898456D01*
X128285646Y-124799853D01*
X128160147Y-124674354D01*
X128061544Y-124526784D01*
X127993624Y-124362812D01*
X127959000Y-124188741D01*
X127959000Y-124011259D01*
X127993624Y-123837188D01*
X128061544Y-123673216D01*
X128160147Y-123525646D01*
X128285646Y-123400147D01*
X128433216Y-123301544D01*
X128597188Y-123233624D01*
X128746488Y-123203927D01*
X128771258Y-123199000D01*
X128948742Y-123199000D01*
X128973512Y-123203927D01*
G37*
G36*
X134885912Y-116680527D02*
G01*
X135035212Y-116710224D01*
X135199184Y-116778144D01*
X135346754Y-116876747D01*
X135472253Y-117002246D01*
X135570856Y-117149816D01*
X135638776Y-117313788D01*
X135673400Y-117487859D01*
X135673400Y-117665341D01*
X135638776Y-117839412D01*
X135570856Y-118003384D01*
X135472253Y-118150954D01*
X135346754Y-118276453D01*
X135199184Y-118375056D01*
X135035212Y-118442976D01*
X134885912Y-118472673D01*
X134861142Y-118477600D01*
X134683658Y-118477600D01*
X134658888Y-118472673D01*
X134509588Y-118442976D01*
X134345616Y-118375056D01*
X134198046Y-118276453D01*
X134072547Y-118150954D01*
X133973944Y-118003384D01*
X133906024Y-117839412D01*
X133871400Y-117665341D01*
X133871400Y-117487859D01*
X133906024Y-117313788D01*
X133973944Y-117149816D01*
X134072547Y-117002246D01*
X134198046Y-116876747D01*
X134345616Y-116778144D01*
X134509588Y-116710224D01*
X134658888Y-116680527D01*
X134683658Y-116675600D01*
X134861142Y-116675600D01*
X134885912Y-116680527D01*
G37*
G36*
X137425912Y-116680527D02*
G01*
X137575212Y-116710224D01*
X137739184Y-116778144D01*
X137886754Y-116876747D01*
X138012253Y-117002246D01*
X138110856Y-117149816D01*
X138178776Y-117313788D01*
X138213400Y-117487859D01*
X138213400Y-117665341D01*
X138178776Y-117839412D01*
X138110856Y-118003384D01*
X138012253Y-118150954D01*
X137886754Y-118276453D01*
X137739184Y-118375056D01*
X137575212Y-118442976D01*
X137425912Y-118472673D01*
X137401142Y-118477600D01*
X137223658Y-118477600D01*
X137198888Y-118472673D01*
X137049588Y-118442976D01*
X136885616Y-118375056D01*
X136738046Y-118276453D01*
X136612547Y-118150954D01*
X136513944Y-118003384D01*
X136446024Y-117839412D01*
X136411400Y-117665341D01*
X136411400Y-117487859D01*
X136446024Y-117313788D01*
X136513944Y-117149816D01*
X136612547Y-117002246D01*
X136738046Y-116876747D01*
X136885616Y-116778144D01*
X137049588Y-116710224D01*
X137198888Y-116680527D01*
X137223658Y-116675600D01*
X137401142Y-116675600D01*
X137425912Y-116680527D01*
G37*
G36*
X140753400Y-118477600D02*
G01*
X138951400Y-118477600D01*
X138951400Y-116675600D01*
X140753400Y-116675600D01*
X140753400Y-118477600D01*
G37*
G36*
X132345912Y-116680527D02*
G01*
X132495212Y-116710224D01*
X132659184Y-116778144D01*
X132806754Y-116876747D01*
X132932253Y-117002246D01*
X133030856Y-117149816D01*
X133098776Y-117313788D01*
X133133400Y-117487859D01*
X133133400Y-117665341D01*
X133098776Y-117839412D01*
X133030856Y-118003384D01*
X132932253Y-118150954D01*
X132806754Y-118276453D01*
X132659184Y-118375056D01*
X132495212Y-118442976D01*
X132345912Y-118472673D01*
X132321142Y-118477600D01*
X132143658Y-118477600D01*
X132118888Y-118472673D01*
X131969588Y-118442976D01*
X131805616Y-118375056D01*
X131658046Y-118276453D01*
X131532547Y-118150954D01*
X131433944Y-118003384D01*
X131366024Y-117839412D01*
X131331400Y-117665341D01*
X131331400Y-117487859D01*
X131366024Y-117313788D01*
X131433944Y-117149816D01*
X131532547Y-117002246D01*
X131658046Y-116876747D01*
X131805616Y-116778144D01*
X131969588Y-116710224D01*
X132118888Y-116680527D01*
X132143658Y-116675600D01*
X132321142Y-116675600D01*
X132345912Y-116680527D01*
G37*
G36*
X138412921Y-114298574D02*
G01*
X138513195Y-114340109D01*
X138513196Y-114340110D01*
X138603442Y-114400410D01*
X138680190Y-114477158D01*
X138680191Y-114477160D01*
X138740491Y-114567405D01*
X138782026Y-114667679D01*
X138803200Y-114774130D01*
X138803200Y-114882670D01*
X138782026Y-114989121D01*
X138740491Y-115089395D01*
X138740490Y-115089396D01*
X138680190Y-115179642D01*
X138603442Y-115256390D01*
X138558012Y-115286745D01*
X138513195Y-115316691D01*
X138412921Y-115358226D01*
X138306470Y-115379400D01*
X138197930Y-115379400D01*
X138091479Y-115358226D01*
X137991205Y-115316691D01*
X137946388Y-115286745D01*
X137900958Y-115256390D01*
X137824210Y-115179642D01*
X137763910Y-115089396D01*
X137763909Y-115089395D01*
X137722374Y-114989121D01*
X137701200Y-114882670D01*
X137701200Y-114774130D01*
X137722374Y-114667679D01*
X137763909Y-114567405D01*
X137824209Y-114477160D01*
X137824210Y-114477158D01*
X137900958Y-114400410D01*
X137991204Y-114340110D01*
X137991205Y-114340109D01*
X138091479Y-114298574D01*
X138197930Y-114277400D01*
X138306470Y-114277400D01*
X138412921Y-114298574D01*
G37*
G36*
X157669712Y-113175327D02*
G01*
X157819012Y-113205024D01*
X157982984Y-113272944D01*
X158130554Y-113371547D01*
X158256053Y-113497046D01*
X158354656Y-113644616D01*
X158422576Y-113808588D01*
X158457200Y-113982659D01*
X158457200Y-114160141D01*
X158422576Y-114334212D01*
X158354656Y-114498184D01*
X158256053Y-114645754D01*
X158130554Y-114771253D01*
X157982984Y-114869856D01*
X157819012Y-114937776D01*
X157669712Y-114967473D01*
X157644942Y-114972400D01*
X157467458Y-114972400D01*
X157442688Y-114967473D01*
X157293388Y-114937776D01*
X157129416Y-114869856D01*
X156981846Y-114771253D01*
X156856347Y-114645754D01*
X156757744Y-114498184D01*
X156689824Y-114334212D01*
X156655200Y-114160141D01*
X156655200Y-113982659D01*
X156689824Y-113808588D01*
X156757744Y-113644616D01*
X156856347Y-113497046D01*
X156981846Y-113371547D01*
X157129416Y-113272944D01*
X157293388Y-113205024D01*
X157442688Y-113175327D01*
X157467458Y-113170400D01*
X157644942Y-113170400D01*
X157669712Y-113175327D01*
G37*
G36*
X138412921Y-112398574D02*
G01*
X138513195Y-112440109D01*
X138513196Y-112440110D01*
X138603442Y-112500410D01*
X138680190Y-112577158D01*
X138680191Y-112577160D01*
X138740491Y-112667405D01*
X138782026Y-112767679D01*
X138803200Y-112874130D01*
X138803200Y-112982670D01*
X138782026Y-113089121D01*
X138740491Y-113189395D01*
X138740490Y-113189396D01*
X138680190Y-113279642D01*
X138603442Y-113356390D01*
X138580758Y-113371547D01*
X138513195Y-113416691D01*
X138412921Y-113458226D01*
X138306470Y-113479400D01*
X138197930Y-113479400D01*
X138091479Y-113458226D01*
X137991205Y-113416691D01*
X137923642Y-113371547D01*
X137900958Y-113356390D01*
X137824210Y-113279642D01*
X137763910Y-113189396D01*
X137763909Y-113189395D01*
X137722374Y-113089121D01*
X137701200Y-112982670D01*
X137701200Y-112874130D01*
X137722374Y-112767679D01*
X137763909Y-112667405D01*
X137824209Y-112577160D01*
X137824210Y-112577158D01*
X137900958Y-112500410D01*
X137991204Y-112440110D01*
X137991205Y-112440109D01*
X138091479Y-112398574D01*
X138197930Y-112377400D01*
X138306470Y-112377400D01*
X138412921Y-112398574D01*
G37*
G36*
X157669712Y-110635327D02*
G01*
X157819012Y-110665024D01*
X157982984Y-110732944D01*
X158130554Y-110831547D01*
X158256053Y-110957046D01*
X158354656Y-111104616D01*
X158422576Y-111268588D01*
X158457200Y-111442659D01*
X158457200Y-111620141D01*
X158422576Y-111794212D01*
X158354656Y-111958184D01*
X158256053Y-112105754D01*
X158130554Y-112231253D01*
X157982984Y-112329856D01*
X157819012Y-112397776D01*
X157669712Y-112427473D01*
X157644942Y-112432400D01*
X157467458Y-112432400D01*
X157442688Y-112427473D01*
X157293388Y-112397776D01*
X157129416Y-112329856D01*
X156981846Y-112231253D01*
X156856347Y-112105754D01*
X156757744Y-111958184D01*
X156689824Y-111794212D01*
X156655200Y-111620141D01*
X156655200Y-111442659D01*
X156689824Y-111268588D01*
X156757744Y-111104616D01*
X156856347Y-110957046D01*
X156981846Y-110831547D01*
X157129416Y-110732944D01*
X157293388Y-110665024D01*
X157442688Y-110635327D01*
X157467458Y-110630400D01*
X157644942Y-110630400D01*
X157669712Y-110635327D01*
G37*
G36*
X157669712Y-108095327D02*
G01*
X157819012Y-108125024D01*
X157982984Y-108192944D01*
X158130554Y-108291547D01*
X158256053Y-108417046D01*
X158354656Y-108564616D01*
X158422576Y-108728588D01*
X158457200Y-108902659D01*
X158457200Y-109080141D01*
X158422576Y-109254212D01*
X158354656Y-109418184D01*
X158256053Y-109565754D01*
X158130554Y-109691253D01*
X157982984Y-109789856D01*
X157819012Y-109857776D01*
X157669712Y-109887473D01*
X157644942Y-109892400D01*
X157467458Y-109892400D01*
X157442688Y-109887473D01*
X157293388Y-109857776D01*
X157129416Y-109789856D01*
X156981846Y-109691253D01*
X156856347Y-109565754D01*
X156757744Y-109418184D01*
X156689824Y-109254212D01*
X156655200Y-109080141D01*
X156655200Y-108902659D01*
X156689824Y-108728588D01*
X156757744Y-108564616D01*
X156856347Y-108417046D01*
X156981846Y-108291547D01*
X157129416Y-108192944D01*
X157293388Y-108125024D01*
X157442688Y-108095327D01*
X157467458Y-108090400D01*
X157644942Y-108090400D01*
X157669712Y-108095327D01*
G37*
G36*
X138692242Y-108119581D02*
G01*
X138838014Y-108179962D01*
X138838016Y-108179963D01*
X138969208Y-108267622D01*
X139080778Y-108379192D01*
X139168437Y-108510384D01*
X139168438Y-108510386D01*
X139228819Y-108656158D01*
X139259600Y-108810907D01*
X139259600Y-108968693D01*
X139228819Y-109123442D01*
X139174652Y-109254211D01*
X139168437Y-109269216D01*
X139080778Y-109400408D01*
X138969208Y-109511978D01*
X138838016Y-109599637D01*
X138838015Y-109599638D01*
X138838014Y-109599638D01*
X138692242Y-109660019D01*
X138537493Y-109690800D01*
X138379707Y-109690800D01*
X138224958Y-109660019D01*
X138079186Y-109599638D01*
X138079185Y-109599638D01*
X138079184Y-109599637D01*
X137947992Y-109511978D01*
X137836422Y-109400408D01*
X137748763Y-109269216D01*
X137742548Y-109254211D01*
X137688381Y-109123442D01*
X137657600Y-108968693D01*
X137657600Y-108810907D01*
X137688381Y-108656158D01*
X137748762Y-108510386D01*
X137748763Y-108510384D01*
X137836422Y-108379192D01*
X137947992Y-108267622D01*
X138079184Y-108179963D01*
X138079186Y-108179962D01*
X138224958Y-108119581D01*
X138379707Y-108088800D01*
X138537493Y-108088800D01*
X138692242Y-108119581D01*
G37*
G36*
X133812242Y-108119581D02*
G01*
X133958014Y-108179962D01*
X133958016Y-108179963D01*
X134089208Y-108267622D01*
X134200778Y-108379192D01*
X134288437Y-108510384D01*
X134288438Y-108510386D01*
X134348819Y-108656158D01*
X134379600Y-108810907D01*
X134379600Y-108968693D01*
X134348819Y-109123442D01*
X134294652Y-109254211D01*
X134288437Y-109269216D01*
X134200778Y-109400408D01*
X134089208Y-109511978D01*
X133958016Y-109599637D01*
X133958015Y-109599638D01*
X133958014Y-109599638D01*
X133812242Y-109660019D01*
X133657493Y-109690800D01*
X133499707Y-109690800D01*
X133344958Y-109660019D01*
X133199186Y-109599638D01*
X133199185Y-109599638D01*
X133199184Y-109599637D01*
X133067992Y-109511978D01*
X132956422Y-109400408D01*
X132868763Y-109269216D01*
X132862548Y-109254211D01*
X132808381Y-109123442D01*
X132777600Y-108968693D01*
X132777600Y-108810907D01*
X132808381Y-108656158D01*
X132868762Y-108510386D01*
X132868763Y-108510384D01*
X132956422Y-108379192D01*
X133067992Y-108267622D01*
X133199184Y-108179963D01*
X133199186Y-108179962D01*
X133344958Y-108119581D01*
X133499707Y-108088800D01*
X133657493Y-108088800D01*
X133812242Y-108119581D01*
G37*
G36*
X158457200Y-107352400D02*
G01*
X156655200Y-107352400D01*
X156655200Y-105550400D01*
X158457200Y-105550400D01*
X158457200Y-107352400D01*
G37*
G36*
X143293512Y-99203927D02*
G01*
X143442812Y-99233624D01*
X143606784Y-99301544D01*
X143754354Y-99400147D01*
X143879853Y-99525646D01*
X143978456Y-99673216D01*
X144046376Y-99837188D01*
X144081000Y-100011259D01*
X144081000Y-100188741D01*
X144046376Y-100362812D01*
X143978456Y-100526784D01*
X143879853Y-100674354D01*
X143754354Y-100799853D01*
X143606784Y-100898456D01*
X143442812Y-100966376D01*
X143293512Y-100996073D01*
X143268742Y-101001000D01*
X143091258Y-101001000D01*
X143066488Y-100996073D01*
X142917188Y-100966376D01*
X142753216Y-100898456D01*
X142605646Y-100799853D01*
X142480147Y-100674354D01*
X142381544Y-100526784D01*
X142313624Y-100362812D01*
X142279000Y-100188741D01*
X142279000Y-100011259D01*
X142313624Y-99837188D01*
X142381544Y-99673216D01*
X142480147Y-99525646D01*
X142605646Y-99400147D01*
X142753216Y-99301544D01*
X142917188Y-99233624D01*
X143066488Y-99203927D01*
X143091258Y-99199000D01*
X143268742Y-99199000D01*
X143293512Y-99203927D01*
G37*
G36*
X128973512Y-99203927D02*
G01*
X129122812Y-99233624D01*
X129286784Y-99301544D01*
X129434354Y-99400147D01*
X129559853Y-99525646D01*
X129658456Y-99673216D01*
X129726376Y-99837188D01*
X129761000Y-100011259D01*
X129761000Y-100188741D01*
X129726376Y-100362812D01*
X129658456Y-100526784D01*
X129559853Y-100674354D01*
X129434354Y-100799853D01*
X129286784Y-100898456D01*
X129122812Y-100966376D01*
X128973512Y-100996073D01*
X128948742Y-101001000D01*
X128771258Y-101001000D01*
X128746488Y-100996073D01*
X128597188Y-100966376D01*
X128433216Y-100898456D01*
X128285646Y-100799853D01*
X128160147Y-100674354D01*
X128061544Y-100526784D01*
X127993624Y-100362812D01*
X127959000Y-100188741D01*
X127959000Y-100011259D01*
X127993624Y-99837188D01*
X128061544Y-99673216D01*
X128160147Y-99525646D01*
X128285646Y-99400147D01*
X128433216Y-99301544D01*
X128597188Y-99233624D01*
X128746488Y-99203927D01*
X128771258Y-99199000D01*
X128948742Y-99199000D01*
X128973512Y-99203927D01*
G37*
G36*
X126433512Y-99203927D02*
G01*
X126582812Y-99233624D01*
X126746784Y-99301544D01*
X126894354Y-99400147D01*
X127019853Y-99525646D01*
X127118456Y-99673216D01*
X127186376Y-99837188D01*
X127221000Y-100011259D01*
X127221000Y-100188741D01*
X127186376Y-100362812D01*
X127118456Y-100526784D01*
X127019853Y-100674354D01*
X126894354Y-100799853D01*
X126746784Y-100898456D01*
X126582812Y-100966376D01*
X126433512Y-100996073D01*
X126408742Y-101001000D01*
X126231258Y-101001000D01*
X126206488Y-100996073D01*
X126057188Y-100966376D01*
X125893216Y-100898456D01*
X125745646Y-100799853D01*
X125620147Y-100674354D01*
X125521544Y-100526784D01*
X125453624Y-100362812D01*
X125419000Y-100188741D01*
X125419000Y-100011259D01*
X125453624Y-99837188D01*
X125521544Y-99673216D01*
X125620147Y-99525646D01*
X125745646Y-99400147D01*
X125893216Y-99301544D01*
X126057188Y-99233624D01*
X126206488Y-99203927D01*
X126231258Y-99199000D01*
X126408742Y-99199000D01*
X126433512Y-99203927D01*
G37*
G36*
X121353512Y-99203927D02*
G01*
X121502812Y-99233624D01*
X121666784Y-99301544D01*
X121814354Y-99400147D01*
X121939853Y-99525646D01*
X122038456Y-99673216D01*
X122106376Y-99837188D01*
X122141000Y-100011259D01*
X122141000Y-100188741D01*
X122106376Y-100362812D01*
X122038456Y-100526784D01*
X121939853Y-100674354D01*
X121814354Y-100799853D01*
X121666784Y-100898456D01*
X121502812Y-100966376D01*
X121353512Y-100996073D01*
X121328742Y-101001000D01*
X121151258Y-101001000D01*
X121126488Y-100996073D01*
X120977188Y-100966376D01*
X120813216Y-100898456D01*
X120665646Y-100799853D01*
X120540147Y-100674354D01*
X120441544Y-100526784D01*
X120373624Y-100362812D01*
X120339000Y-100188741D01*
X120339000Y-100011259D01*
X120373624Y-99837188D01*
X120441544Y-99673216D01*
X120540147Y-99525646D01*
X120665646Y-99400147D01*
X120813216Y-99301544D01*
X120977188Y-99233624D01*
X121126488Y-99203927D01*
X121151258Y-99199000D01*
X121328742Y-99199000D01*
X121353512Y-99203927D01*
G37*
G36*
X123893512Y-99203927D02*
G01*
X124042812Y-99233624D01*
X124206784Y-99301544D01*
X124354354Y-99400147D01*
X124479853Y-99525646D01*
X124578456Y-99673216D01*
X124646376Y-99837188D01*
X124681000Y-100011259D01*
X124681000Y-100188741D01*
X124646376Y-100362812D01*
X124578456Y-100526784D01*
X124479853Y-100674354D01*
X124354354Y-100799853D01*
X124206784Y-100898456D01*
X124042812Y-100966376D01*
X123893512Y-100996073D01*
X123868742Y-101001000D01*
X123691258Y-101001000D01*
X123666488Y-100996073D01*
X123517188Y-100966376D01*
X123353216Y-100898456D01*
X123205646Y-100799853D01*
X123080147Y-100674354D01*
X122981544Y-100526784D01*
X122913624Y-100362812D01*
X122879000Y-100188741D01*
X122879000Y-100011259D01*
X122913624Y-99837188D01*
X122981544Y-99673216D01*
X123080147Y-99525646D01*
X123205646Y-99400147D01*
X123353216Y-99301544D01*
X123517188Y-99233624D01*
X123666488Y-99203927D01*
X123691258Y-99199000D01*
X123868742Y-99199000D01*
X123893512Y-99203927D01*
G37*
G36*
X148373512Y-99203927D02*
G01*
X148522812Y-99233624D01*
X148686784Y-99301544D01*
X148834354Y-99400147D01*
X148959853Y-99525646D01*
X149058456Y-99673216D01*
X149126376Y-99837188D01*
X149161000Y-100011259D01*
X149161000Y-100188741D01*
X149126376Y-100362812D01*
X149058456Y-100526784D01*
X148959853Y-100674354D01*
X148834354Y-100799853D01*
X148686784Y-100898456D01*
X148522812Y-100966376D01*
X148373512Y-100996073D01*
X148348742Y-101001000D01*
X148171258Y-101001000D01*
X148146488Y-100996073D01*
X147997188Y-100966376D01*
X147833216Y-100898456D01*
X147685646Y-100799853D01*
X147560147Y-100674354D01*
X147461544Y-100526784D01*
X147393624Y-100362812D01*
X147359000Y-100188741D01*
X147359000Y-100011259D01*
X147393624Y-99837188D01*
X147461544Y-99673216D01*
X147560147Y-99525646D01*
X147685646Y-99400147D01*
X147833216Y-99301544D01*
X147997188Y-99233624D01*
X148146488Y-99203927D01*
X148171258Y-99199000D01*
X148348742Y-99199000D01*
X148373512Y-99203927D01*
G37*
G36*
X150913512Y-99203927D02*
G01*
X151062812Y-99233624D01*
X151226784Y-99301544D01*
X151374354Y-99400147D01*
X151499853Y-99525646D01*
X151598456Y-99673216D01*
X151666376Y-99837188D01*
X151701000Y-100011259D01*
X151701000Y-100188741D01*
X151666376Y-100362812D01*
X151598456Y-100526784D01*
X151499853Y-100674354D01*
X151374354Y-100799853D01*
X151226784Y-100898456D01*
X151062812Y-100966376D01*
X150913512Y-100996073D01*
X150888742Y-101001000D01*
X150711258Y-101001000D01*
X150686488Y-100996073D01*
X150537188Y-100966376D01*
X150373216Y-100898456D01*
X150225646Y-100799853D01*
X150100147Y-100674354D01*
X150001544Y-100526784D01*
X149933624Y-100362812D01*
X149899000Y-100188741D01*
X149899000Y-100011259D01*
X149933624Y-99837188D01*
X150001544Y-99673216D01*
X150100147Y-99525646D01*
X150225646Y-99400147D01*
X150373216Y-99301544D01*
X150537188Y-99233624D01*
X150686488Y-99203927D01*
X150711258Y-99199000D01*
X150888742Y-99199000D01*
X150913512Y-99203927D01*
G37*
G36*
X153453512Y-99203927D02*
G01*
X153602812Y-99233624D01*
X153766784Y-99301544D01*
X153914354Y-99400147D01*
X154039853Y-99525646D01*
X154138456Y-99673216D01*
X154206376Y-99837188D01*
X154241000Y-100011259D01*
X154241000Y-100188741D01*
X154206376Y-100362812D01*
X154138456Y-100526784D01*
X154039853Y-100674354D01*
X153914354Y-100799853D01*
X153766784Y-100898456D01*
X153602812Y-100966376D01*
X153453512Y-100996073D01*
X153428742Y-101001000D01*
X153251258Y-101001000D01*
X153226488Y-100996073D01*
X153077188Y-100966376D01*
X152913216Y-100898456D01*
X152765646Y-100799853D01*
X152640147Y-100674354D01*
X152541544Y-100526784D01*
X152473624Y-100362812D01*
X152439000Y-100188741D01*
X152439000Y-100011259D01*
X152473624Y-99837188D01*
X152541544Y-99673216D01*
X152640147Y-99525646D01*
X152765646Y-99400147D01*
X152913216Y-99301544D01*
X153077188Y-99233624D01*
X153226488Y-99203927D01*
X153251258Y-99199000D01*
X153428742Y-99199000D01*
X153453512Y-99203927D01*
G37*
G36*
X158533512Y-99203927D02*
G01*
X158682812Y-99233624D01*
X158846784Y-99301544D01*
X158994354Y-99400147D01*
X159119853Y-99525646D01*
X159218456Y-99673216D01*
X159286376Y-99837188D01*
X159321000Y-100011259D01*
X159321000Y-100188741D01*
X159286376Y-100362812D01*
X159218456Y-100526784D01*
X159119853Y-100674354D01*
X158994354Y-100799853D01*
X158846784Y-100898456D01*
X158682812Y-100966376D01*
X158533512Y-100996073D01*
X158508742Y-101001000D01*
X158331258Y-101001000D01*
X158306488Y-100996073D01*
X158157188Y-100966376D01*
X157993216Y-100898456D01*
X157845646Y-100799853D01*
X157720147Y-100674354D01*
X157621544Y-100526784D01*
X157553624Y-100362812D01*
X157519000Y-100188741D01*
X157519000Y-100011259D01*
X157553624Y-99837188D01*
X157621544Y-99673216D01*
X157720147Y-99525646D01*
X157845646Y-99400147D01*
X157993216Y-99301544D01*
X158157188Y-99233624D01*
X158306488Y-99203927D01*
X158331258Y-99199000D01*
X158508742Y-99199000D01*
X158533512Y-99203927D01*
G37*
G36*
X155993512Y-99203927D02*
G01*
X156142812Y-99233624D01*
X156306784Y-99301544D01*
X156454354Y-99400147D01*
X156579853Y-99525646D01*
X156678456Y-99673216D01*
X156746376Y-99837188D01*
X156781000Y-100011259D01*
X156781000Y-100188741D01*
X156746376Y-100362812D01*
X156678456Y-100526784D01*
X156579853Y-100674354D01*
X156454354Y-100799853D01*
X156306784Y-100898456D01*
X156142812Y-100966376D01*
X155993512Y-100996073D01*
X155968742Y-101001000D01*
X155791258Y-101001000D01*
X155766488Y-100996073D01*
X155617188Y-100966376D01*
X155453216Y-100898456D01*
X155305646Y-100799853D01*
X155180147Y-100674354D01*
X155081544Y-100526784D01*
X155013624Y-100362812D01*
X154979000Y-100188741D01*
X154979000Y-100011259D01*
X155013624Y-99837188D01*
X155081544Y-99673216D01*
X155180147Y-99525646D01*
X155305646Y-99400147D01*
X155453216Y-99301544D01*
X155617188Y-99233624D01*
X155766488Y-99203927D01*
X155791258Y-99199000D01*
X155968742Y-99199000D01*
X155993512Y-99203927D01*
G37*
G36*
X118813512Y-99203927D02*
G01*
X118962812Y-99233624D01*
X119126784Y-99301544D01*
X119274354Y-99400147D01*
X119399853Y-99525646D01*
X119498456Y-99673216D01*
X119566376Y-99837188D01*
X119601000Y-100011259D01*
X119601000Y-100188741D01*
X119566376Y-100362812D01*
X119498456Y-100526784D01*
X119399853Y-100674354D01*
X119274354Y-100799853D01*
X119126784Y-100898456D01*
X118962812Y-100966376D01*
X118813512Y-100996073D01*
X118788742Y-101001000D01*
X118611258Y-101001000D01*
X118586488Y-100996073D01*
X118437188Y-100966376D01*
X118273216Y-100898456D01*
X118125646Y-100799853D01*
X118000147Y-100674354D01*
X117901544Y-100526784D01*
X117833624Y-100362812D01*
X117799000Y-100188741D01*
X117799000Y-100011259D01*
X117833624Y-99837188D01*
X117901544Y-99673216D01*
X118000147Y-99525646D01*
X118125646Y-99400147D01*
X118273216Y-99301544D01*
X118437188Y-99233624D01*
X118586488Y-99203927D01*
X118611258Y-99199000D01*
X118788742Y-99199000D01*
X118813512Y-99203927D01*
G37*
G36*
X145833512Y-99203927D02*
G01*
X145982812Y-99233624D01*
X146146784Y-99301544D01*
X146294354Y-99400147D01*
X146419853Y-99525646D01*
X146518456Y-99673216D01*
X146586376Y-99837188D01*
X146621000Y-100011259D01*
X146621000Y-100188741D01*
X146586376Y-100362812D01*
X146518456Y-100526784D01*
X146419853Y-100674354D01*
X146294354Y-100799853D01*
X146146784Y-100898456D01*
X145982812Y-100966376D01*
X145833512Y-100996073D01*
X145808742Y-101001000D01*
X145631258Y-101001000D01*
X145606488Y-100996073D01*
X145457188Y-100966376D01*
X145293216Y-100898456D01*
X145145646Y-100799853D01*
X145020147Y-100674354D01*
X144921544Y-100526784D01*
X144853624Y-100362812D01*
X144819000Y-100188741D01*
X144819000Y-100011259D01*
X144853624Y-99837188D01*
X144921544Y-99673216D01*
X145020147Y-99525646D01*
X145145646Y-99400147D01*
X145293216Y-99301544D01*
X145457188Y-99233624D01*
X145606488Y-99203927D01*
X145631258Y-99199000D01*
X145808742Y-99199000D01*
X145833512Y-99203927D01*
G37*
G36*
X116273512Y-99203927D02*
G01*
X116422812Y-99233624D01*
X116586784Y-99301544D01*
X116734354Y-99400147D01*
X116859853Y-99525646D01*
X116958456Y-99673216D01*
X117026376Y-99837188D01*
X117061000Y-100011259D01*
X117061000Y-100188741D01*
X117026376Y-100362812D01*
X116958456Y-100526784D01*
X116859853Y-100674354D01*
X116734354Y-100799853D01*
X116586784Y-100898456D01*
X116422812Y-100966376D01*
X116273512Y-100996073D01*
X116248742Y-101001000D01*
X116071258Y-101001000D01*
X116046488Y-100996073D01*
X115897188Y-100966376D01*
X115733216Y-100898456D01*
X115585646Y-100799853D01*
X115460147Y-100674354D01*
X115361544Y-100526784D01*
X115293624Y-100362812D01*
X115259000Y-100188741D01*
X115259000Y-100011259D01*
X115293624Y-99837188D01*
X115361544Y-99673216D01*
X115460147Y-99525646D01*
X115585646Y-99400147D01*
X115733216Y-99301544D01*
X115897188Y-99233624D01*
X116046488Y-99203927D01*
X116071258Y-99199000D01*
X116248742Y-99199000D01*
X116273512Y-99203927D01*
G37*
G36*
X111193512Y-99203927D02*
G01*
X111342812Y-99233624D01*
X111506784Y-99301544D01*
X111654354Y-99400147D01*
X111779853Y-99525646D01*
X111878456Y-99673216D01*
X111946376Y-99837188D01*
X111981000Y-100011259D01*
X111981000Y-100188741D01*
X111946376Y-100362812D01*
X111878456Y-100526784D01*
X111779853Y-100674354D01*
X111654354Y-100799853D01*
X111506784Y-100898456D01*
X111342812Y-100966376D01*
X111193512Y-100996073D01*
X111168742Y-101001000D01*
X110991258Y-101001000D01*
X110966488Y-100996073D01*
X110817188Y-100966376D01*
X110653216Y-100898456D01*
X110505646Y-100799853D01*
X110380147Y-100674354D01*
X110281544Y-100526784D01*
X110213624Y-100362812D01*
X110179000Y-100188741D01*
X110179000Y-100011259D01*
X110213624Y-99837188D01*
X110281544Y-99673216D01*
X110380147Y-99525646D01*
X110505646Y-99400147D01*
X110653216Y-99301544D01*
X110817188Y-99233624D01*
X110966488Y-99203927D01*
X110991258Y-99199000D01*
X111168742Y-99199000D01*
X111193512Y-99203927D01*
G37*
G36*
X161073512Y-99203927D02*
G01*
X161222812Y-99233624D01*
X161386784Y-99301544D01*
X161534354Y-99400147D01*
X161659853Y-99525646D01*
X161758456Y-99673216D01*
X161826376Y-99837188D01*
X161861000Y-100011259D01*
X161861000Y-100188741D01*
X161826376Y-100362812D01*
X161758456Y-100526784D01*
X161659853Y-100674354D01*
X161534354Y-100799853D01*
X161386784Y-100898456D01*
X161222812Y-100966376D01*
X161073512Y-100996073D01*
X161048742Y-101001000D01*
X160871258Y-101001000D01*
X160846488Y-100996073D01*
X160697188Y-100966376D01*
X160533216Y-100898456D01*
X160385646Y-100799853D01*
X160260147Y-100674354D01*
X160161544Y-100526784D01*
X160093624Y-100362812D01*
X160059000Y-100188741D01*
X160059000Y-100011259D01*
X160093624Y-99837188D01*
X160161544Y-99673216D01*
X160260147Y-99525646D01*
X160385646Y-99400147D01*
X160533216Y-99301544D01*
X160697188Y-99233624D01*
X160846488Y-99203927D01*
X160871258Y-99199000D01*
X161048742Y-99199000D01*
X161073512Y-99203927D01*
G37*
G36*
X113733512Y-99203927D02*
G01*
X113882812Y-99233624D01*
X114046784Y-99301544D01*
X114194354Y-99400147D01*
X114319853Y-99525646D01*
X114418456Y-99673216D01*
X114486376Y-99837188D01*
X114521000Y-100011259D01*
X114521000Y-100188741D01*
X114486376Y-100362812D01*
X114418456Y-100526784D01*
X114319853Y-100674354D01*
X114194354Y-100799853D01*
X114046784Y-100898456D01*
X113882812Y-100966376D01*
X113733512Y-100996073D01*
X113708742Y-101001000D01*
X113531258Y-101001000D01*
X113506488Y-100996073D01*
X113357188Y-100966376D01*
X113193216Y-100898456D01*
X113045646Y-100799853D01*
X112920147Y-100674354D01*
X112821544Y-100526784D01*
X112753624Y-100362812D01*
X112719000Y-100188741D01*
X112719000Y-100011259D01*
X112753624Y-99837188D01*
X112821544Y-99673216D01*
X112920147Y-99525646D01*
X113045646Y-99400147D01*
X113193216Y-99301544D01*
X113357188Y-99233624D01*
X113506488Y-99203927D01*
X113531258Y-99199000D01*
X113708742Y-99199000D01*
X113733512Y-99203927D01*
G37*
G36*
X158533512Y-91103927D02*
G01*
X158682812Y-91133624D01*
X158846784Y-91201544D01*
X158994354Y-91300147D01*
X159119853Y-91425646D01*
X159218456Y-91573216D01*
X159286376Y-91737188D01*
X159321000Y-91911259D01*
X159321000Y-92088741D01*
X159286376Y-92262812D01*
X159218456Y-92426784D01*
X159119853Y-92574354D01*
X158994354Y-92699853D01*
X158846784Y-92798456D01*
X158682812Y-92866376D01*
X158533512Y-92896073D01*
X158508742Y-92901000D01*
X158331258Y-92901000D01*
X158306488Y-92896073D01*
X158157188Y-92866376D01*
X157993216Y-92798456D01*
X157845646Y-92699853D01*
X157720147Y-92574354D01*
X157621544Y-92426784D01*
X157553624Y-92262812D01*
X157519000Y-92088741D01*
X157519000Y-91911259D01*
X157553624Y-91737188D01*
X157621544Y-91573216D01*
X157720147Y-91425646D01*
X157845646Y-91300147D01*
X157993216Y-91201544D01*
X158157188Y-91133624D01*
X158306488Y-91103927D01*
X158331258Y-91099000D01*
X158508742Y-91099000D01*
X158533512Y-91103927D01*
G37*
G36*
X128973512Y-91103927D02*
G01*
X129122812Y-91133624D01*
X129286784Y-91201544D01*
X129434354Y-91300147D01*
X129559853Y-91425646D01*
X129658456Y-91573216D01*
X129726376Y-91737188D01*
X129761000Y-91911259D01*
X129761000Y-92088741D01*
X129726376Y-92262812D01*
X129658456Y-92426784D01*
X129559853Y-92574354D01*
X129434354Y-92699853D01*
X129286784Y-92798456D01*
X129122812Y-92866376D01*
X128973512Y-92896073D01*
X128948742Y-92901000D01*
X128771258Y-92901000D01*
X128746488Y-92896073D01*
X128597188Y-92866376D01*
X128433216Y-92798456D01*
X128285646Y-92699853D01*
X128160147Y-92574354D01*
X128061544Y-92426784D01*
X127993624Y-92262812D01*
X127959000Y-92088741D01*
X127959000Y-91911259D01*
X127993624Y-91737188D01*
X128061544Y-91573216D01*
X128160147Y-91425646D01*
X128285646Y-91300147D01*
X128433216Y-91201544D01*
X128597188Y-91133624D01*
X128746488Y-91103927D01*
X128771258Y-91099000D01*
X128948742Y-91099000D01*
X128973512Y-91103927D01*
G37*
G36*
X123893512Y-91103927D02*
G01*
X124042812Y-91133624D01*
X124206784Y-91201544D01*
X124354354Y-91300147D01*
X124479853Y-91425646D01*
X124578456Y-91573216D01*
X124646376Y-91737188D01*
X124681000Y-91911259D01*
X124681000Y-92088741D01*
X124646376Y-92262812D01*
X124578456Y-92426784D01*
X124479853Y-92574354D01*
X124354354Y-92699853D01*
X124206784Y-92798456D01*
X124042812Y-92866376D01*
X123893512Y-92896073D01*
X123868742Y-92901000D01*
X123691258Y-92901000D01*
X123666488Y-92896073D01*
X123517188Y-92866376D01*
X123353216Y-92798456D01*
X123205646Y-92699853D01*
X123080147Y-92574354D01*
X122981544Y-92426784D01*
X122913624Y-92262812D01*
X122879000Y-92088741D01*
X122879000Y-91911259D01*
X122913624Y-91737188D01*
X122981544Y-91573216D01*
X123080147Y-91425646D01*
X123205646Y-91300147D01*
X123353216Y-91201544D01*
X123517188Y-91133624D01*
X123666488Y-91103927D01*
X123691258Y-91099000D01*
X123868742Y-91099000D01*
X123893512Y-91103927D01*
G37*
G36*
X121353512Y-91103927D02*
G01*
X121502812Y-91133624D01*
X121666784Y-91201544D01*
X121814354Y-91300147D01*
X121939853Y-91425646D01*
X122038456Y-91573216D01*
X122106376Y-91737188D01*
X122141000Y-91911259D01*
X122141000Y-92088741D01*
X122106376Y-92262812D01*
X122038456Y-92426784D01*
X121939853Y-92574354D01*
X121814354Y-92699853D01*
X121666784Y-92798456D01*
X121502812Y-92866376D01*
X121353512Y-92896073D01*
X121328742Y-92901000D01*
X121151258Y-92901000D01*
X121126488Y-92896073D01*
X120977188Y-92866376D01*
X120813216Y-92798456D01*
X120665646Y-92699853D01*
X120540147Y-92574354D01*
X120441544Y-92426784D01*
X120373624Y-92262812D01*
X120339000Y-92088741D01*
X120339000Y-91911259D01*
X120373624Y-91737188D01*
X120441544Y-91573216D01*
X120540147Y-91425646D01*
X120665646Y-91300147D01*
X120813216Y-91201544D01*
X120977188Y-91133624D01*
X121126488Y-91103927D01*
X121151258Y-91099000D01*
X121328742Y-91099000D01*
X121353512Y-91103927D01*
G37*
G36*
X118813512Y-91103927D02*
G01*
X118962812Y-91133624D01*
X119126784Y-91201544D01*
X119274354Y-91300147D01*
X119399853Y-91425646D01*
X119498456Y-91573216D01*
X119566376Y-91737188D01*
X119601000Y-91911259D01*
X119601000Y-92088741D01*
X119566376Y-92262812D01*
X119498456Y-92426784D01*
X119399853Y-92574354D01*
X119274354Y-92699853D01*
X119126784Y-92798456D01*
X118962812Y-92866376D01*
X118813512Y-92896073D01*
X118788742Y-92901000D01*
X118611258Y-92901000D01*
X118586488Y-92896073D01*
X118437188Y-92866376D01*
X118273216Y-92798456D01*
X118125646Y-92699853D01*
X118000147Y-92574354D01*
X117901544Y-92426784D01*
X117833624Y-92262812D01*
X117799000Y-92088741D01*
X117799000Y-91911259D01*
X117833624Y-91737188D01*
X117901544Y-91573216D01*
X118000147Y-91425646D01*
X118125646Y-91300147D01*
X118273216Y-91201544D01*
X118437188Y-91133624D01*
X118586488Y-91103927D01*
X118611258Y-91099000D01*
X118788742Y-91099000D01*
X118813512Y-91103927D01*
G37*
G36*
X116273512Y-91103927D02*
G01*
X116422812Y-91133624D01*
X116586784Y-91201544D01*
X116734354Y-91300147D01*
X116859853Y-91425646D01*
X116958456Y-91573216D01*
X117026376Y-91737188D01*
X117061000Y-91911259D01*
X117061000Y-92088741D01*
X117026376Y-92262812D01*
X116958456Y-92426784D01*
X116859853Y-92574354D01*
X116734354Y-92699853D01*
X116586784Y-92798456D01*
X116422812Y-92866376D01*
X116273512Y-92896073D01*
X116248742Y-92901000D01*
X116071258Y-92901000D01*
X116046488Y-92896073D01*
X115897188Y-92866376D01*
X115733216Y-92798456D01*
X115585646Y-92699853D01*
X115460147Y-92574354D01*
X115361544Y-92426784D01*
X115293624Y-92262812D01*
X115259000Y-92088741D01*
X115259000Y-91911259D01*
X115293624Y-91737188D01*
X115361544Y-91573216D01*
X115460147Y-91425646D01*
X115585646Y-91300147D01*
X115733216Y-91201544D01*
X115897188Y-91133624D01*
X116046488Y-91103927D01*
X116071258Y-91099000D01*
X116248742Y-91099000D01*
X116273512Y-91103927D01*
G37*
G36*
X113733512Y-91103927D02*
G01*
X113882812Y-91133624D01*
X114046784Y-91201544D01*
X114194354Y-91300147D01*
X114319853Y-91425646D01*
X114418456Y-91573216D01*
X114486376Y-91737188D01*
X114521000Y-91911259D01*
X114521000Y-92088741D01*
X114486376Y-92262812D01*
X114418456Y-92426784D01*
X114319853Y-92574354D01*
X114194354Y-92699853D01*
X114046784Y-92798456D01*
X113882812Y-92866376D01*
X113733512Y-92896073D01*
X113708742Y-92901000D01*
X113531258Y-92901000D01*
X113506488Y-92896073D01*
X113357188Y-92866376D01*
X113193216Y-92798456D01*
X113045646Y-92699853D01*
X112920147Y-92574354D01*
X112821544Y-92426784D01*
X112753624Y-92262812D01*
X112719000Y-92088741D01*
X112719000Y-91911259D01*
X112753624Y-91737188D01*
X112821544Y-91573216D01*
X112920147Y-91425646D01*
X113045646Y-91300147D01*
X113193216Y-91201544D01*
X113357188Y-91133624D01*
X113506488Y-91103927D01*
X113531258Y-91099000D01*
X113708742Y-91099000D01*
X113733512Y-91103927D01*
G37*
G36*
X111193512Y-91103927D02*
G01*
X111342812Y-91133624D01*
X111506784Y-91201544D01*
X111654354Y-91300147D01*
X111779853Y-91425646D01*
X111878456Y-91573216D01*
X111946376Y-91737188D01*
X111981000Y-91911259D01*
X111981000Y-92088741D01*
X111946376Y-92262812D01*
X111878456Y-92426784D01*
X111779853Y-92574354D01*
X111654354Y-92699853D01*
X111506784Y-92798456D01*
X111342812Y-92866376D01*
X111193512Y-92896073D01*
X111168742Y-92901000D01*
X110991258Y-92901000D01*
X110966488Y-92896073D01*
X110817188Y-92866376D01*
X110653216Y-92798456D01*
X110505646Y-92699853D01*
X110380147Y-92574354D01*
X110281544Y-92426784D01*
X110213624Y-92262812D01*
X110179000Y-92088741D01*
X110179000Y-91911259D01*
X110213624Y-91737188D01*
X110281544Y-91573216D01*
X110380147Y-91425646D01*
X110505646Y-91300147D01*
X110653216Y-91201544D01*
X110817188Y-91133624D01*
X110966488Y-91103927D01*
X110991258Y-91099000D01*
X111168742Y-91099000D01*
X111193512Y-91103927D01*
G37*
G36*
X161073512Y-91103927D02*
G01*
X161222812Y-91133624D01*
X161386784Y-91201544D01*
X161534354Y-91300147D01*
X161659853Y-91425646D01*
X161758456Y-91573216D01*
X161826376Y-91737188D01*
X161861000Y-91911259D01*
X161861000Y-92088741D01*
X161826376Y-92262812D01*
X161758456Y-92426784D01*
X161659853Y-92574354D01*
X161534354Y-92699853D01*
X161386784Y-92798456D01*
X161222812Y-92866376D01*
X161073512Y-92896073D01*
X161048742Y-92901000D01*
X160871258Y-92901000D01*
X160846488Y-92896073D01*
X160697188Y-92866376D01*
X160533216Y-92798456D01*
X160385646Y-92699853D01*
X160260147Y-92574354D01*
X160161544Y-92426784D01*
X160093624Y-92262812D01*
X160059000Y-92088741D01*
X160059000Y-91911259D01*
X160093624Y-91737188D01*
X160161544Y-91573216D01*
X160260147Y-91425646D01*
X160385646Y-91300147D01*
X160533216Y-91201544D01*
X160697188Y-91133624D01*
X160846488Y-91103927D01*
X160871258Y-91099000D01*
X161048742Y-91099000D01*
X161073512Y-91103927D01*
G37*
G36*
X155993512Y-91103927D02*
G01*
X156142812Y-91133624D01*
X156306784Y-91201544D01*
X156454354Y-91300147D01*
X156579853Y-91425646D01*
X156678456Y-91573216D01*
X156746376Y-91737188D01*
X156781000Y-91911259D01*
X156781000Y-92088741D01*
X156746376Y-92262812D01*
X156678456Y-92426784D01*
X156579853Y-92574354D01*
X156454354Y-92699853D01*
X156306784Y-92798456D01*
X156142812Y-92866376D01*
X155993512Y-92896073D01*
X155968742Y-92901000D01*
X155791258Y-92901000D01*
X155766488Y-92896073D01*
X155617188Y-92866376D01*
X155453216Y-92798456D01*
X155305646Y-92699853D01*
X155180147Y-92574354D01*
X155081544Y-92426784D01*
X155013624Y-92262812D01*
X154979000Y-92088741D01*
X154979000Y-91911259D01*
X155013624Y-91737188D01*
X155081544Y-91573216D01*
X155180147Y-91425646D01*
X155305646Y-91300147D01*
X155453216Y-91201544D01*
X155617188Y-91133624D01*
X155766488Y-91103927D01*
X155791258Y-91099000D01*
X155968742Y-91099000D01*
X155993512Y-91103927D01*
G37*
G36*
X153453512Y-91103927D02*
G01*
X153602812Y-91133624D01*
X153766784Y-91201544D01*
X153914354Y-91300147D01*
X154039853Y-91425646D01*
X154138456Y-91573216D01*
X154206376Y-91737188D01*
X154241000Y-91911259D01*
X154241000Y-92088741D01*
X154206376Y-92262812D01*
X154138456Y-92426784D01*
X154039853Y-92574354D01*
X153914354Y-92699853D01*
X153766784Y-92798456D01*
X153602812Y-92866376D01*
X153453512Y-92896073D01*
X153428742Y-92901000D01*
X153251258Y-92901000D01*
X153226488Y-92896073D01*
X153077188Y-92866376D01*
X152913216Y-92798456D01*
X152765646Y-92699853D01*
X152640147Y-92574354D01*
X152541544Y-92426784D01*
X152473624Y-92262812D01*
X152439000Y-92088741D01*
X152439000Y-91911259D01*
X152473624Y-91737188D01*
X152541544Y-91573216D01*
X152640147Y-91425646D01*
X152765646Y-91300147D01*
X152913216Y-91201544D01*
X153077188Y-91133624D01*
X153226488Y-91103927D01*
X153251258Y-91099000D01*
X153428742Y-91099000D01*
X153453512Y-91103927D01*
G37*
G36*
X150913512Y-91103927D02*
G01*
X151062812Y-91133624D01*
X151226784Y-91201544D01*
X151374354Y-91300147D01*
X151499853Y-91425646D01*
X151598456Y-91573216D01*
X151666376Y-91737188D01*
X151701000Y-91911259D01*
X151701000Y-92088741D01*
X151666376Y-92262812D01*
X151598456Y-92426784D01*
X151499853Y-92574354D01*
X151374354Y-92699853D01*
X151226784Y-92798456D01*
X151062812Y-92866376D01*
X150913512Y-92896073D01*
X150888742Y-92901000D01*
X150711258Y-92901000D01*
X150686488Y-92896073D01*
X150537188Y-92866376D01*
X150373216Y-92798456D01*
X150225646Y-92699853D01*
X150100147Y-92574354D01*
X150001544Y-92426784D01*
X149933624Y-92262812D01*
X149899000Y-92088741D01*
X149899000Y-91911259D01*
X149933624Y-91737188D01*
X150001544Y-91573216D01*
X150100147Y-91425646D01*
X150225646Y-91300147D01*
X150373216Y-91201544D01*
X150537188Y-91133624D01*
X150686488Y-91103927D01*
X150711258Y-91099000D01*
X150888742Y-91099000D01*
X150913512Y-91103927D01*
G37*
G36*
X148373512Y-91103927D02*
G01*
X148522812Y-91133624D01*
X148686784Y-91201544D01*
X148834354Y-91300147D01*
X148959853Y-91425646D01*
X149058456Y-91573216D01*
X149126376Y-91737188D01*
X149161000Y-91911259D01*
X149161000Y-92088741D01*
X149126376Y-92262812D01*
X149058456Y-92426784D01*
X148959853Y-92574354D01*
X148834354Y-92699853D01*
X148686784Y-92798456D01*
X148522812Y-92866376D01*
X148373512Y-92896073D01*
X148348742Y-92901000D01*
X148171258Y-92901000D01*
X148146488Y-92896073D01*
X147997188Y-92866376D01*
X147833216Y-92798456D01*
X147685646Y-92699853D01*
X147560147Y-92574354D01*
X147461544Y-92426784D01*
X147393624Y-92262812D01*
X147359000Y-92088741D01*
X147359000Y-91911259D01*
X147393624Y-91737188D01*
X147461544Y-91573216D01*
X147560147Y-91425646D01*
X147685646Y-91300147D01*
X147833216Y-91201544D01*
X147997188Y-91133624D01*
X148146488Y-91103927D01*
X148171258Y-91099000D01*
X148348742Y-91099000D01*
X148373512Y-91103927D01*
G37*
G36*
X145833512Y-91103927D02*
G01*
X145982812Y-91133624D01*
X146146784Y-91201544D01*
X146294354Y-91300147D01*
X146419853Y-91425646D01*
X146518456Y-91573216D01*
X146586376Y-91737188D01*
X146621000Y-91911259D01*
X146621000Y-92088741D01*
X146586376Y-92262812D01*
X146518456Y-92426784D01*
X146419853Y-92574354D01*
X146294354Y-92699853D01*
X146146784Y-92798456D01*
X145982812Y-92866376D01*
X145833512Y-92896073D01*
X145808742Y-92901000D01*
X145631258Y-92901000D01*
X145606488Y-92896073D01*
X145457188Y-92866376D01*
X145293216Y-92798456D01*
X145145646Y-92699853D01*
X145020147Y-92574354D01*
X144921544Y-92426784D01*
X144853624Y-92262812D01*
X144819000Y-92088741D01*
X144819000Y-91911259D01*
X144853624Y-91737188D01*
X144921544Y-91573216D01*
X145020147Y-91425646D01*
X145145646Y-91300147D01*
X145293216Y-91201544D01*
X145457188Y-91133624D01*
X145606488Y-91103927D01*
X145631258Y-91099000D01*
X145808742Y-91099000D01*
X145833512Y-91103927D01*
G37*
G36*
X126433512Y-91103927D02*
G01*
X126582812Y-91133624D01*
X126746784Y-91201544D01*
X126894354Y-91300147D01*
X127019853Y-91425646D01*
X127118456Y-91573216D01*
X127186376Y-91737188D01*
X127221000Y-91911259D01*
X127221000Y-92088741D01*
X127186376Y-92262812D01*
X127118456Y-92426784D01*
X127019853Y-92574354D01*
X126894354Y-92699853D01*
X126746784Y-92798456D01*
X126582812Y-92866376D01*
X126433512Y-92896073D01*
X126408742Y-92901000D01*
X126231258Y-92901000D01*
X126206488Y-92896073D01*
X126057188Y-92866376D01*
X125893216Y-92798456D01*
X125745646Y-92699853D01*
X125620147Y-92574354D01*
X125521544Y-92426784D01*
X125453624Y-92262812D01*
X125419000Y-92088741D01*
X125419000Y-91911259D01*
X125453624Y-91737188D01*
X125521544Y-91573216D01*
X125620147Y-91425646D01*
X125745646Y-91300147D01*
X125893216Y-91201544D01*
X126057188Y-91133624D01*
X126206488Y-91103927D01*
X126231258Y-91099000D01*
X126408742Y-91099000D01*
X126433512Y-91103927D01*
G37*
G36*
X143293512Y-91103927D02*
G01*
X143442812Y-91133624D01*
X143606784Y-91201544D01*
X143754354Y-91300147D01*
X143879853Y-91425646D01*
X143978456Y-91573216D01*
X144046376Y-91737188D01*
X144081000Y-91911259D01*
X144081000Y-92088741D01*
X144046376Y-92262812D01*
X143978456Y-92426784D01*
X143879853Y-92574354D01*
X143754354Y-92699853D01*
X143606784Y-92798456D01*
X143442812Y-92866376D01*
X143293512Y-92896073D01*
X143268742Y-92901000D01*
X143091258Y-92901000D01*
X143066488Y-92896073D01*
X142917188Y-92866376D01*
X142753216Y-92798456D01*
X142605646Y-92699853D01*
X142480147Y-92574354D01*
X142381544Y-92426784D01*
X142313624Y-92262812D01*
X142279000Y-92088741D01*
X142279000Y-91911259D01*
X142313624Y-91737188D01*
X142381544Y-91573216D01*
X142480147Y-91425646D01*
X142605646Y-91300147D01*
X142753216Y-91201544D01*
X142917188Y-91133624D01*
X143066488Y-91103927D01*
X143091258Y-91099000D01*
X143268742Y-91099000D01*
X143293512Y-91103927D01*
G37*
G36*
X157669712Y-79748927D02*
G01*
X157819012Y-79778624D01*
X157982984Y-79846544D01*
X158130554Y-79945147D01*
X158256053Y-80070646D01*
X158354656Y-80218216D01*
X158422576Y-80382188D01*
X158457200Y-80556259D01*
X158457200Y-80733741D01*
X158422576Y-80907812D01*
X158354656Y-81071784D01*
X158256053Y-81219354D01*
X158130554Y-81344853D01*
X157982984Y-81443456D01*
X157819012Y-81511376D01*
X157669712Y-81541073D01*
X157644942Y-81546000D01*
X157467458Y-81546000D01*
X157442688Y-81541073D01*
X157293388Y-81511376D01*
X157129416Y-81443456D01*
X156981846Y-81344853D01*
X156856347Y-81219354D01*
X156757744Y-81071784D01*
X156689824Y-80907812D01*
X156655200Y-80733741D01*
X156655200Y-80556259D01*
X156689824Y-80382188D01*
X156757744Y-80218216D01*
X156856347Y-80070646D01*
X156981846Y-79945147D01*
X157129416Y-79846544D01*
X157293388Y-79778624D01*
X157442688Y-79748927D01*
X157467458Y-79744000D01*
X157644942Y-79744000D01*
X157669712Y-79748927D01*
G37*
G36*
X157669712Y-77208927D02*
G01*
X157819012Y-77238624D01*
X157982984Y-77306544D01*
X158130554Y-77405147D01*
X158256053Y-77530646D01*
X158354656Y-77678216D01*
X158422576Y-77842188D01*
X158457200Y-78016259D01*
X158457200Y-78193741D01*
X158422576Y-78367812D01*
X158354656Y-78531784D01*
X158256053Y-78679354D01*
X158130554Y-78804853D01*
X157982984Y-78903456D01*
X157819012Y-78971376D01*
X157669712Y-79001073D01*
X157644942Y-79006000D01*
X157467458Y-79006000D01*
X157442688Y-79001073D01*
X157293388Y-78971376D01*
X157129416Y-78903456D01*
X156981846Y-78804853D01*
X156856347Y-78679354D01*
X156757744Y-78531784D01*
X156689824Y-78367812D01*
X156655200Y-78193741D01*
X156655200Y-78016259D01*
X156689824Y-77842188D01*
X156757744Y-77678216D01*
X156856347Y-77530646D01*
X156981846Y-77405147D01*
X157129416Y-77306544D01*
X157293388Y-77238624D01*
X157442688Y-77208927D01*
X157467458Y-77204000D01*
X157644942Y-77204000D01*
X157669712Y-77208927D01*
G37*
G36*
X157669712Y-74668927D02*
G01*
X157819012Y-74698624D01*
X157982984Y-74766544D01*
X158130554Y-74865147D01*
X158256053Y-74990646D01*
X158354656Y-75138216D01*
X158422576Y-75302188D01*
X158457200Y-75476259D01*
X158457200Y-75653741D01*
X158422576Y-75827812D01*
X158354656Y-75991784D01*
X158256053Y-76139354D01*
X158130554Y-76264853D01*
X157982984Y-76363456D01*
X157819012Y-76431376D01*
X157669712Y-76461073D01*
X157644942Y-76466000D01*
X157467458Y-76466000D01*
X157442688Y-76461073D01*
X157293388Y-76431376D01*
X157129416Y-76363456D01*
X156981846Y-76264853D01*
X156856347Y-76139354D01*
X156757744Y-75991784D01*
X156689824Y-75827812D01*
X156655200Y-75653741D01*
X156655200Y-75476259D01*
X156689824Y-75302188D01*
X156757744Y-75138216D01*
X156856347Y-74990646D01*
X156981846Y-74865147D01*
X157129416Y-74766544D01*
X157293388Y-74698624D01*
X157442688Y-74668927D01*
X157467458Y-74664000D01*
X157644942Y-74664000D01*
X157669712Y-74668927D01*
G37*
G36*
X158457200Y-73926000D02*
G01*
X156655200Y-73926000D01*
X156655200Y-72124000D01*
X158457200Y-72124000D01*
X158457200Y-73926000D01*
G37*
G36*
X140521215Y-70185173D02*
G01*
X140625079Y-70216679D01*
X140652255Y-70231205D01*
X140720800Y-70267843D01*
X140804701Y-70336699D01*
X140873557Y-70420600D01*
X140892554Y-70456142D01*
X140924721Y-70516321D01*
X140956227Y-70620185D01*
X140964200Y-70701133D01*
X140964200Y-71855267D01*
X140956227Y-71936215D01*
X140924721Y-72040079D01*
X140924719Y-72040082D01*
X140879864Y-72124000D01*
X140873556Y-72135800D01*
X140804701Y-72219701D01*
X140735845Y-72276209D01*
X140720799Y-72288557D01*
X140669107Y-72316187D01*
X140625078Y-72339721D01*
X140521214Y-72371227D01*
X140413200Y-72381866D01*
X140305185Y-72371227D01*
X140201321Y-72339721D01*
X140157293Y-72316187D01*
X140105601Y-72288557D01*
X140092843Y-72278087D01*
X140021699Y-72219701D01*
X139952844Y-72135800D01*
X139946537Y-72124000D01*
X139925213Y-72084107D01*
X139901679Y-72040078D01*
X139870173Y-71936214D01*
X139862200Y-71855266D01*
X139862201Y-70701133D01*
X139870174Y-70620185D01*
X139901680Y-70516321D01*
X139933847Y-70456142D01*
X139952844Y-70420600D01*
X140021700Y-70336699D01*
X140105601Y-70267843D01*
X140174146Y-70231205D01*
X140201322Y-70216679D01*
X140305186Y-70185173D01*
X140413200Y-70174534D01*
X140521215Y-70185173D01*
G37*
G36*
X131881215Y-70185173D02*
G01*
X131985079Y-70216679D01*
X132012255Y-70231205D01*
X132080800Y-70267843D01*
X132164701Y-70336699D01*
X132233557Y-70420600D01*
X132252554Y-70456142D01*
X132284721Y-70516321D01*
X132316227Y-70620185D01*
X132324200Y-70701133D01*
X132324200Y-71855267D01*
X132316227Y-71936215D01*
X132284721Y-72040079D01*
X132284719Y-72040082D01*
X132239864Y-72124000D01*
X132233556Y-72135800D01*
X132164701Y-72219701D01*
X132095845Y-72276209D01*
X132080799Y-72288557D01*
X132029107Y-72316187D01*
X131985078Y-72339721D01*
X131881214Y-72371227D01*
X131773200Y-72381866D01*
X131665185Y-72371227D01*
X131561321Y-72339721D01*
X131517293Y-72316187D01*
X131465601Y-72288557D01*
X131452843Y-72278087D01*
X131381699Y-72219701D01*
X131312844Y-72135800D01*
X131306537Y-72124000D01*
X131285213Y-72084107D01*
X131261679Y-72040078D01*
X131230173Y-71936214D01*
X131222200Y-71855266D01*
X131222201Y-70701133D01*
X131230174Y-70620185D01*
X131261680Y-70516321D01*
X131293847Y-70456142D01*
X131312844Y-70420600D01*
X131381700Y-70336699D01*
X131465601Y-70267843D01*
X131534146Y-70231205D01*
X131561322Y-70216679D01*
X131665186Y-70185173D01*
X131773200Y-70174534D01*
X131881215Y-70185173D01*
G37*
G36*
X139092872Y-70386649D02*
G01*
X139092874Y-70386650D01*
X139092875Y-70386650D01*
X139161303Y-70414993D01*
X139222886Y-70456142D01*
X139275258Y-70508514D01*
X139316407Y-70570097D01*
X139344750Y-70638525D01*
X139359200Y-70711167D01*
X139359200Y-70785233D01*
X139344750Y-70857875D01*
X139316407Y-70926303D01*
X139275258Y-70987886D01*
X139222886Y-71040258D01*
X139161303Y-71081407D01*
X139092875Y-71109750D01*
X139092874Y-71109750D01*
X139092872Y-71109751D01*
X139020234Y-71124200D01*
X138946166Y-71124200D01*
X138873528Y-71109751D01*
X138873526Y-71109750D01*
X138873525Y-71109750D01*
X138805097Y-71081407D01*
X138743514Y-71040258D01*
X138691142Y-70987886D01*
X138649993Y-70926303D01*
X138621650Y-70857875D01*
X138607200Y-70785233D01*
X138607200Y-70711167D01*
X138621650Y-70638525D01*
X138649993Y-70570097D01*
X138691142Y-70508514D01*
X138743514Y-70456142D01*
X138805097Y-70414993D01*
X138873525Y-70386650D01*
X138873526Y-70386650D01*
X138873528Y-70386649D01*
X138946166Y-70372200D01*
X139020234Y-70372200D01*
X139092872Y-70386649D01*
G37*
G36*
X133312872Y-70386649D02*
G01*
X133312874Y-70386650D01*
X133312875Y-70386650D01*
X133381303Y-70414993D01*
X133442886Y-70456142D01*
X133495258Y-70508514D01*
X133536407Y-70570097D01*
X133564750Y-70638525D01*
X133579200Y-70711167D01*
X133579200Y-70785233D01*
X133564750Y-70857875D01*
X133536407Y-70926303D01*
X133495258Y-70987886D01*
X133442886Y-71040258D01*
X133381303Y-71081407D01*
X133312875Y-71109750D01*
X133312874Y-71109750D01*
X133312872Y-71109751D01*
X133240234Y-71124200D01*
X133166166Y-71124200D01*
X133093528Y-71109751D01*
X133093526Y-71109750D01*
X133093525Y-71109750D01*
X133025097Y-71081407D01*
X132963514Y-71040258D01*
X132911142Y-70987886D01*
X132869993Y-70926303D01*
X132841650Y-70857875D01*
X132827200Y-70785233D01*
X132827200Y-70711167D01*
X132841650Y-70638525D01*
X132869993Y-70570097D01*
X132911142Y-70508514D01*
X132963514Y-70456142D01*
X133025097Y-70414993D01*
X133093525Y-70386650D01*
X133093526Y-70386650D01*
X133093528Y-70386649D01*
X133166166Y-70372200D01*
X133240234Y-70372200D01*
X133312872Y-70386649D01*
G37*
G36*
X121353512Y-67103927D02*
G01*
X121502812Y-67133624D01*
X121666784Y-67201544D01*
X121814354Y-67300147D01*
X121939853Y-67425646D01*
X122038456Y-67573216D01*
X122106376Y-67737188D01*
X122141000Y-67911259D01*
X122141000Y-68088741D01*
X122106376Y-68262812D01*
X122038456Y-68426784D01*
X121939853Y-68574354D01*
X121814354Y-68699853D01*
X121666784Y-68798456D01*
X121502812Y-68866376D01*
X121353512Y-68896073D01*
X121328742Y-68901000D01*
X121151258Y-68901000D01*
X121126488Y-68896073D01*
X120977188Y-68866376D01*
X120813216Y-68798456D01*
X120665646Y-68699853D01*
X120540147Y-68574354D01*
X120441544Y-68426784D01*
X120373624Y-68262812D01*
X120339000Y-68088741D01*
X120339000Y-67911259D01*
X120373624Y-67737188D01*
X120441544Y-67573216D01*
X120540147Y-67425646D01*
X120665646Y-67300147D01*
X120813216Y-67201544D01*
X120977188Y-67133624D01*
X121126488Y-67103927D01*
X121151258Y-67099000D01*
X121328742Y-67099000D01*
X121353512Y-67103927D01*
G37*
G36*
X118813512Y-67103927D02*
G01*
X118962812Y-67133624D01*
X119126784Y-67201544D01*
X119274354Y-67300147D01*
X119399853Y-67425646D01*
X119498456Y-67573216D01*
X119566376Y-67737188D01*
X119601000Y-67911259D01*
X119601000Y-68088741D01*
X119566376Y-68262812D01*
X119498456Y-68426784D01*
X119399853Y-68574354D01*
X119274354Y-68699853D01*
X119126784Y-68798456D01*
X118962812Y-68866376D01*
X118813512Y-68896073D01*
X118788742Y-68901000D01*
X118611258Y-68901000D01*
X118586488Y-68896073D01*
X118437188Y-68866376D01*
X118273216Y-68798456D01*
X118125646Y-68699853D01*
X118000147Y-68574354D01*
X117901544Y-68426784D01*
X117833624Y-68262812D01*
X117799000Y-68088741D01*
X117799000Y-67911259D01*
X117833624Y-67737188D01*
X117901544Y-67573216D01*
X118000147Y-67425646D01*
X118125646Y-67300147D01*
X118273216Y-67201544D01*
X118437188Y-67133624D01*
X118586488Y-67103927D01*
X118611258Y-67099000D01*
X118788742Y-67099000D01*
X118813512Y-67103927D01*
G37*
G36*
X150913512Y-67103927D02*
G01*
X151062812Y-67133624D01*
X151226784Y-67201544D01*
X151374354Y-67300147D01*
X151499853Y-67425646D01*
X151598456Y-67573216D01*
X151666376Y-67737188D01*
X151701000Y-67911259D01*
X151701000Y-68088741D01*
X151666376Y-68262812D01*
X151598456Y-68426784D01*
X151499853Y-68574354D01*
X151374354Y-68699853D01*
X151226784Y-68798456D01*
X151062812Y-68866376D01*
X150913512Y-68896073D01*
X150888742Y-68901000D01*
X150711258Y-68901000D01*
X150686488Y-68896073D01*
X150537188Y-68866376D01*
X150373216Y-68798456D01*
X150225646Y-68699853D01*
X150100147Y-68574354D01*
X150001544Y-68426784D01*
X149933624Y-68262812D01*
X149899000Y-68088741D01*
X149899000Y-67911259D01*
X149933624Y-67737188D01*
X150001544Y-67573216D01*
X150100147Y-67425646D01*
X150225646Y-67300147D01*
X150373216Y-67201544D01*
X150537188Y-67133624D01*
X150686488Y-67103927D01*
X150711258Y-67099000D01*
X150888742Y-67099000D01*
X150913512Y-67103927D01*
G37*
G36*
X148373512Y-67103927D02*
G01*
X148522812Y-67133624D01*
X148686784Y-67201544D01*
X148834354Y-67300147D01*
X148959853Y-67425646D01*
X149058456Y-67573216D01*
X149126376Y-67737188D01*
X149161000Y-67911259D01*
X149161000Y-68088741D01*
X149126376Y-68262812D01*
X149058456Y-68426784D01*
X148959853Y-68574354D01*
X148834354Y-68699853D01*
X148686784Y-68798456D01*
X148522812Y-68866376D01*
X148373512Y-68896073D01*
X148348742Y-68901000D01*
X148171258Y-68901000D01*
X148146488Y-68896073D01*
X147997188Y-68866376D01*
X147833216Y-68798456D01*
X147685646Y-68699853D01*
X147560147Y-68574354D01*
X147461544Y-68426784D01*
X147393624Y-68262812D01*
X147359000Y-68088741D01*
X147359000Y-67911259D01*
X147393624Y-67737188D01*
X147461544Y-67573216D01*
X147560147Y-67425646D01*
X147685646Y-67300147D01*
X147833216Y-67201544D01*
X147997188Y-67133624D01*
X148146488Y-67103927D01*
X148171258Y-67099000D01*
X148348742Y-67099000D01*
X148373512Y-67103927D01*
G37*
G36*
X145833512Y-67103927D02*
G01*
X145982812Y-67133624D01*
X146146784Y-67201544D01*
X146294354Y-67300147D01*
X146419853Y-67425646D01*
X146518456Y-67573216D01*
X146586376Y-67737188D01*
X146621000Y-67911259D01*
X146621000Y-68088741D01*
X146586376Y-68262812D01*
X146518456Y-68426784D01*
X146419853Y-68574354D01*
X146294354Y-68699853D01*
X146146784Y-68798456D01*
X145982812Y-68866376D01*
X145833512Y-68896073D01*
X145808742Y-68901000D01*
X145631258Y-68901000D01*
X145606488Y-68896073D01*
X145457188Y-68866376D01*
X145293216Y-68798456D01*
X145145646Y-68699853D01*
X145020147Y-68574354D01*
X144921544Y-68426784D01*
X144853624Y-68262812D01*
X144819000Y-68088741D01*
X144819000Y-67911259D01*
X144853624Y-67737188D01*
X144921544Y-67573216D01*
X145020147Y-67425646D01*
X145145646Y-67300147D01*
X145293216Y-67201544D01*
X145457188Y-67133624D01*
X145606488Y-67103927D01*
X145631258Y-67099000D01*
X145808742Y-67099000D01*
X145833512Y-67103927D01*
G37*
G36*
X155993512Y-67103927D02*
G01*
X156142812Y-67133624D01*
X156306784Y-67201544D01*
X156454354Y-67300147D01*
X156579853Y-67425646D01*
X156678456Y-67573216D01*
X156746376Y-67737188D01*
X156781000Y-67911259D01*
X156781000Y-68088741D01*
X156746376Y-68262812D01*
X156678456Y-68426784D01*
X156579853Y-68574354D01*
X156454354Y-68699853D01*
X156306784Y-68798456D01*
X156142812Y-68866376D01*
X155993512Y-68896073D01*
X155968742Y-68901000D01*
X155791258Y-68901000D01*
X155766488Y-68896073D01*
X155617188Y-68866376D01*
X155453216Y-68798456D01*
X155305646Y-68699853D01*
X155180147Y-68574354D01*
X155081544Y-68426784D01*
X155013624Y-68262812D01*
X154979000Y-68088741D01*
X154979000Y-67911259D01*
X155013624Y-67737188D01*
X155081544Y-67573216D01*
X155180147Y-67425646D01*
X155305646Y-67300147D01*
X155453216Y-67201544D01*
X155617188Y-67133624D01*
X155766488Y-67103927D01*
X155791258Y-67099000D01*
X155968742Y-67099000D01*
X155993512Y-67103927D01*
G37*
G36*
X143293512Y-67103927D02*
G01*
X143442812Y-67133624D01*
X143606784Y-67201544D01*
X143754354Y-67300147D01*
X143879853Y-67425646D01*
X143978456Y-67573216D01*
X144046376Y-67737188D01*
X144081000Y-67911259D01*
X144081000Y-68088741D01*
X144046376Y-68262812D01*
X143978456Y-68426784D01*
X143879853Y-68574354D01*
X143754354Y-68699853D01*
X143606784Y-68798456D01*
X143442812Y-68866376D01*
X143293512Y-68896073D01*
X143268742Y-68901000D01*
X143091258Y-68901000D01*
X143066488Y-68896073D01*
X142917188Y-68866376D01*
X142753216Y-68798456D01*
X142605646Y-68699853D01*
X142480147Y-68574354D01*
X142381544Y-68426784D01*
X142313624Y-68262812D01*
X142279000Y-68088741D01*
X142279000Y-67911259D01*
X142313624Y-67737188D01*
X142381544Y-67573216D01*
X142480147Y-67425646D01*
X142605646Y-67300147D01*
X142753216Y-67201544D01*
X142917188Y-67133624D01*
X143066488Y-67103927D01*
X143091258Y-67099000D01*
X143268742Y-67099000D01*
X143293512Y-67103927D01*
G37*
G36*
X161073512Y-67103927D02*
G01*
X161222812Y-67133624D01*
X161386784Y-67201544D01*
X161534354Y-67300147D01*
X161659853Y-67425646D01*
X161758456Y-67573216D01*
X161826376Y-67737188D01*
X161861000Y-67911259D01*
X161861000Y-68088741D01*
X161826376Y-68262812D01*
X161758456Y-68426784D01*
X161659853Y-68574354D01*
X161534354Y-68699853D01*
X161386784Y-68798456D01*
X161222812Y-68866376D01*
X161073512Y-68896073D01*
X161048742Y-68901000D01*
X160871258Y-68901000D01*
X160846488Y-68896073D01*
X160697188Y-68866376D01*
X160533216Y-68798456D01*
X160385646Y-68699853D01*
X160260147Y-68574354D01*
X160161544Y-68426784D01*
X160093624Y-68262812D01*
X160059000Y-68088741D01*
X160059000Y-67911259D01*
X160093624Y-67737188D01*
X160161544Y-67573216D01*
X160260147Y-67425646D01*
X160385646Y-67300147D01*
X160533216Y-67201544D01*
X160697188Y-67133624D01*
X160846488Y-67103927D01*
X160871258Y-67099000D01*
X161048742Y-67099000D01*
X161073512Y-67103927D01*
G37*
G36*
X158533512Y-67103927D02*
G01*
X158682812Y-67133624D01*
X158846784Y-67201544D01*
X158994354Y-67300147D01*
X159119853Y-67425646D01*
X159218456Y-67573216D01*
X159286376Y-67737188D01*
X159321000Y-67911259D01*
X159321000Y-68088741D01*
X159286376Y-68262812D01*
X159218456Y-68426784D01*
X159119853Y-68574354D01*
X158994354Y-68699853D01*
X158846784Y-68798456D01*
X158682812Y-68866376D01*
X158533512Y-68896073D01*
X158508742Y-68901000D01*
X158331258Y-68901000D01*
X158306488Y-68896073D01*
X158157188Y-68866376D01*
X157993216Y-68798456D01*
X157845646Y-68699853D01*
X157720147Y-68574354D01*
X157621544Y-68426784D01*
X157553624Y-68262812D01*
X157519000Y-68088741D01*
X157519000Y-67911259D01*
X157553624Y-67737188D01*
X157621544Y-67573216D01*
X157720147Y-67425646D01*
X157845646Y-67300147D01*
X157993216Y-67201544D01*
X158157188Y-67133624D01*
X158306488Y-67103927D01*
X158331258Y-67099000D01*
X158508742Y-67099000D01*
X158533512Y-67103927D01*
G37*
G36*
X153453512Y-67103927D02*
G01*
X153602812Y-67133624D01*
X153766784Y-67201544D01*
X153914354Y-67300147D01*
X154039853Y-67425646D01*
X154138456Y-67573216D01*
X154206376Y-67737188D01*
X154241000Y-67911259D01*
X154241000Y-68088741D01*
X154206376Y-68262812D01*
X154138456Y-68426784D01*
X154039853Y-68574354D01*
X153914354Y-68699853D01*
X153766784Y-68798456D01*
X153602812Y-68866376D01*
X153453512Y-68896073D01*
X153428742Y-68901000D01*
X153251258Y-68901000D01*
X153226488Y-68896073D01*
X153077188Y-68866376D01*
X152913216Y-68798456D01*
X152765646Y-68699853D01*
X152640147Y-68574354D01*
X152541544Y-68426784D01*
X152473624Y-68262812D01*
X152439000Y-68088741D01*
X152439000Y-67911259D01*
X152473624Y-67737188D01*
X152541544Y-67573216D01*
X152640147Y-67425646D01*
X152765646Y-67300147D01*
X152913216Y-67201544D01*
X153077188Y-67133624D01*
X153226488Y-67103927D01*
X153251258Y-67099000D01*
X153428742Y-67099000D01*
X153453512Y-67103927D01*
G37*
G36*
X123893512Y-67103927D02*
G01*
X124042812Y-67133624D01*
X124206784Y-67201544D01*
X124354354Y-67300147D01*
X124479853Y-67425646D01*
X124578456Y-67573216D01*
X124646376Y-67737188D01*
X124681000Y-67911259D01*
X124681000Y-68088741D01*
X124646376Y-68262812D01*
X124578456Y-68426784D01*
X124479853Y-68574354D01*
X124354354Y-68699853D01*
X124206784Y-68798456D01*
X124042812Y-68866376D01*
X123893512Y-68896073D01*
X123868742Y-68901000D01*
X123691258Y-68901000D01*
X123666488Y-68896073D01*
X123517188Y-68866376D01*
X123353216Y-68798456D01*
X123205646Y-68699853D01*
X123080147Y-68574354D01*
X122981544Y-68426784D01*
X122913624Y-68262812D01*
X122879000Y-68088741D01*
X122879000Y-67911259D01*
X122913624Y-67737188D01*
X122981544Y-67573216D01*
X123080147Y-67425646D01*
X123205646Y-67300147D01*
X123353216Y-67201544D01*
X123517188Y-67133624D01*
X123666488Y-67103927D01*
X123691258Y-67099000D01*
X123868742Y-67099000D01*
X123893512Y-67103927D01*
G37*
G36*
X111193512Y-67103927D02*
G01*
X111342812Y-67133624D01*
X111506784Y-67201544D01*
X111654354Y-67300147D01*
X111779853Y-67425646D01*
X111878456Y-67573216D01*
X111946376Y-67737188D01*
X111981000Y-67911259D01*
X111981000Y-68088741D01*
X111946376Y-68262812D01*
X111878456Y-68426784D01*
X111779853Y-68574354D01*
X111654354Y-68699853D01*
X111506784Y-68798456D01*
X111342812Y-68866376D01*
X111193512Y-68896073D01*
X111168742Y-68901000D01*
X110991258Y-68901000D01*
X110966488Y-68896073D01*
X110817188Y-68866376D01*
X110653216Y-68798456D01*
X110505646Y-68699853D01*
X110380147Y-68574354D01*
X110281544Y-68426784D01*
X110213624Y-68262812D01*
X110179000Y-68088741D01*
X110179000Y-67911259D01*
X110213624Y-67737188D01*
X110281544Y-67573216D01*
X110380147Y-67425646D01*
X110505646Y-67300147D01*
X110653216Y-67201544D01*
X110817188Y-67133624D01*
X110966488Y-67103927D01*
X110991258Y-67099000D01*
X111168742Y-67099000D01*
X111193512Y-67103927D01*
G37*
G36*
X116273512Y-67103927D02*
G01*
X116422812Y-67133624D01*
X116586784Y-67201544D01*
X116734354Y-67300147D01*
X116859853Y-67425646D01*
X116958456Y-67573216D01*
X117026376Y-67737188D01*
X117061000Y-67911259D01*
X117061000Y-68088741D01*
X117026376Y-68262812D01*
X116958456Y-68426784D01*
X116859853Y-68574354D01*
X116734354Y-68699853D01*
X116586784Y-68798456D01*
X116422812Y-68866376D01*
X116273512Y-68896073D01*
X116248742Y-68901000D01*
X116071258Y-68901000D01*
X116046488Y-68896073D01*
X115897188Y-68866376D01*
X115733216Y-68798456D01*
X115585646Y-68699853D01*
X115460147Y-68574354D01*
X115361544Y-68426784D01*
X115293624Y-68262812D01*
X115259000Y-68088741D01*
X115259000Y-67911259D01*
X115293624Y-67737188D01*
X115361544Y-67573216D01*
X115460147Y-67425646D01*
X115585646Y-67300147D01*
X115733216Y-67201544D01*
X115897188Y-67133624D01*
X116046488Y-67103927D01*
X116071258Y-67099000D01*
X116248742Y-67099000D01*
X116273512Y-67103927D01*
G37*
G36*
X126433512Y-67103927D02*
G01*
X126582812Y-67133624D01*
X126746784Y-67201544D01*
X126894354Y-67300147D01*
X127019853Y-67425646D01*
X127118456Y-67573216D01*
X127186376Y-67737188D01*
X127221000Y-67911259D01*
X127221000Y-68088741D01*
X127186376Y-68262812D01*
X127118456Y-68426784D01*
X127019853Y-68574354D01*
X126894354Y-68699853D01*
X126746784Y-68798456D01*
X126582812Y-68866376D01*
X126433512Y-68896073D01*
X126408742Y-68901000D01*
X126231258Y-68901000D01*
X126206488Y-68896073D01*
X126057188Y-68866376D01*
X125893216Y-68798456D01*
X125745646Y-68699853D01*
X125620147Y-68574354D01*
X125521544Y-68426784D01*
X125453624Y-68262812D01*
X125419000Y-68088741D01*
X125419000Y-67911259D01*
X125453624Y-67737188D01*
X125521544Y-67573216D01*
X125620147Y-67425646D01*
X125745646Y-67300147D01*
X125893216Y-67201544D01*
X126057188Y-67133624D01*
X126206488Y-67103927D01*
X126231258Y-67099000D01*
X126408742Y-67099000D01*
X126433512Y-67103927D01*
G37*
G36*
X113733512Y-67103927D02*
G01*
X113882812Y-67133624D01*
X114046784Y-67201544D01*
X114194354Y-67300147D01*
X114319853Y-67425646D01*
X114418456Y-67573216D01*
X114486376Y-67737188D01*
X114521000Y-67911259D01*
X114521000Y-68088741D01*
X114486376Y-68262812D01*
X114418456Y-68426784D01*
X114319853Y-68574354D01*
X114194354Y-68699853D01*
X114046784Y-68798456D01*
X113882812Y-68866376D01*
X113733512Y-68896073D01*
X113708742Y-68901000D01*
X113531258Y-68901000D01*
X113506488Y-68896073D01*
X113357188Y-68866376D01*
X113193216Y-68798456D01*
X113045646Y-68699853D01*
X112920147Y-68574354D01*
X112821544Y-68426784D01*
X112753624Y-68262812D01*
X112719000Y-68088741D01*
X112719000Y-67911259D01*
X112753624Y-67737188D01*
X112821544Y-67573216D01*
X112920147Y-67425646D01*
X113045646Y-67300147D01*
X113193216Y-67201544D01*
X113357188Y-67133624D01*
X113506488Y-67103927D01*
X113531258Y-67099000D01*
X113708742Y-67099000D01*
X113733512Y-67103927D01*
G37*
G36*
X128973512Y-67103927D02*
G01*
X129122812Y-67133624D01*
X129286784Y-67201544D01*
X129434354Y-67300147D01*
X129559853Y-67425646D01*
X129658456Y-67573216D01*
X129726376Y-67737188D01*
X129761000Y-67911259D01*
X129761000Y-68088741D01*
X129726376Y-68262812D01*
X129658456Y-68426784D01*
X129559853Y-68574354D01*
X129434354Y-68699853D01*
X129286784Y-68798456D01*
X129122812Y-68866376D01*
X128973512Y-68896073D01*
X128948742Y-68901000D01*
X128771258Y-68901000D01*
X128746488Y-68896073D01*
X128597188Y-68866376D01*
X128433216Y-68798456D01*
X128285646Y-68699853D01*
X128160147Y-68574354D01*
X128061544Y-68426784D01*
X127993624Y-68262812D01*
X127959000Y-68088741D01*
X127959000Y-67911259D01*
X127993624Y-67737188D01*
X128061544Y-67573216D01*
X128160147Y-67425646D01*
X128285646Y-67300147D01*
X128433216Y-67201544D01*
X128597188Y-67133624D01*
X128746488Y-67103927D01*
X128771258Y-67099000D01*
X128948742Y-67099000D01*
X128973512Y-67103927D01*
G37*
G36*
X131881215Y-66255173D02*
G01*
X131985079Y-66286679D01*
X132012255Y-66301205D01*
X132080800Y-66337843D01*
X132164701Y-66406699D01*
X132233557Y-66490600D01*
X132270195Y-66559145D01*
X132284721Y-66586321D01*
X132316227Y-66690185D01*
X132324200Y-66771133D01*
X132324200Y-67425267D01*
X132316227Y-67506215D01*
X132284721Y-67610079D01*
X132233556Y-67705800D01*
X132164701Y-67789701D01*
X132095845Y-67846209D01*
X132080799Y-67858557D01*
X132029107Y-67886187D01*
X131985078Y-67909721D01*
X131881214Y-67941227D01*
X131773200Y-67951866D01*
X131665185Y-67941227D01*
X131561321Y-67909721D01*
X131517293Y-67886187D01*
X131465601Y-67858557D01*
X131452843Y-67848087D01*
X131381699Y-67789701D01*
X131312844Y-67705800D01*
X131261679Y-67610078D01*
X131230173Y-67506214D01*
X131222200Y-67425266D01*
X131222200Y-66771133D01*
X131230173Y-66690185D01*
X131261680Y-66586321D01*
X131261682Y-66586318D01*
X131312845Y-66490599D01*
X131381700Y-66406699D01*
X131465601Y-66337843D01*
X131534146Y-66301205D01*
X131561322Y-66286679D01*
X131665186Y-66255173D01*
X131773200Y-66244534D01*
X131881215Y-66255173D01*
G37*
G36*
X140521215Y-66255173D02*
G01*
X140625079Y-66286679D01*
X140652255Y-66301205D01*
X140720800Y-66337843D01*
X140804701Y-66406699D01*
X140873557Y-66490600D01*
X140910195Y-66559145D01*
X140924721Y-66586321D01*
X140956227Y-66690185D01*
X140964200Y-66771133D01*
X140964200Y-67425267D01*
X140956227Y-67506215D01*
X140924721Y-67610079D01*
X140873556Y-67705800D01*
X140804701Y-67789701D01*
X140735845Y-67846209D01*
X140720799Y-67858557D01*
X140669107Y-67886187D01*
X140625078Y-67909721D01*
X140521214Y-67941227D01*
X140413200Y-67951866D01*
X140305185Y-67941227D01*
X140201321Y-67909721D01*
X140157293Y-67886187D01*
X140105601Y-67858557D01*
X140092843Y-67848087D01*
X140021699Y-67789701D01*
X139952844Y-67705800D01*
X139901679Y-67610078D01*
X139870173Y-67506214D01*
X139862200Y-67425266D01*
X139862200Y-66771133D01*
X139870173Y-66690185D01*
X139901680Y-66586321D01*
X139901682Y-66586318D01*
X139952845Y-66490599D01*
X140021700Y-66406699D01*
X140105601Y-66337843D01*
X140174146Y-66301205D01*
X140201322Y-66286679D01*
X140305186Y-66255173D01*
X140413200Y-66244534D01*
X140521215Y-66255173D01*
G37*
M02*
