G04 #@! TF.GenerationSoftware,KiCad,Pcbnew,5.1.5+dfsg1-2build2*
G04 #@! TF.CreationDate,2021-09-03T17:34:20+08:00*
G04 #@! TF.ProjectId,lattice_screen,6c617474-6963-4655-9f73-637265656e2e,rev?*
G04 #@! TF.SameCoordinates,Original*
G04 #@! TF.FileFunction,Legend,Top*
G04 #@! TF.FilePolarity,Positive*
%FSLAX46Y46*%
G04 Gerber Fmt 4.6, Leading zero omitted, Abs format (unit mm)*
G04 Created by KiCad (PCBNEW 5.1.5+dfsg1-2build2) date 2021-09-03 17:34:20*
%MOMM*%
%LPD*%
G04 APERTURE LIST*
%ADD10C,0.120000*%
%ADD11C,0.150000*%
G04 APERTURE END LIST*
D10*
X151100000Y-128100000D02*
G75*
G02X153100000Y-128100000I1000000J0D01*
G01*
X136100000Y-128100000D02*
X136100000Y-96100000D01*
X168100000Y-128100000D02*
X136100000Y-128100000D01*
X168100000Y-96100000D02*
X168100000Y-128100000D01*
X136100000Y-96100000D02*
X168100000Y-96100000D01*
X119000000Y-128100000D02*
G75*
G02X121000000Y-128100000I1000000J0D01*
G01*
X104000000Y-128100000D02*
X104000000Y-96100000D01*
X136000000Y-128100000D02*
X104000000Y-128100000D01*
X136000000Y-96100000D02*
X136000000Y-128100000D01*
X104000000Y-96100000D02*
X136000000Y-96100000D01*
X151100000Y-96000000D02*
G75*
G02X153100000Y-96000000I1000000J0D01*
G01*
X136100000Y-96000000D02*
X136100000Y-64000000D01*
X168100000Y-96000000D02*
X136100000Y-96000000D01*
X168100000Y-64000000D02*
X168100000Y-96000000D01*
X136100000Y-64000000D02*
X168100000Y-64000000D01*
X119000000Y-96000000D02*
G75*
G02X121000000Y-96000000I1000000J0D01*
G01*
X104000000Y-96000000D02*
X104000000Y-64000000D01*
X136000000Y-96000000D02*
X104000000Y-96000000D01*
X136000000Y-64000000D02*
X136000000Y-96000000D01*
X104000000Y-64000000D02*
X136000000Y-64000000D01*
X156286200Y-71755000D02*
X157556200Y-71755000D01*
X156286200Y-73025000D02*
X156286200Y-71755000D01*
X158599129Y-81025000D02*
X158996200Y-81025000D01*
X158599129Y-80265000D02*
X158996200Y-80265000D01*
X167656200Y-81025000D02*
X161656200Y-81025000D01*
X167656200Y-80265000D02*
X167656200Y-81025000D01*
X161656200Y-80265000D02*
X167656200Y-80265000D01*
X158996200Y-79375000D02*
X161656200Y-79375000D01*
X158599129Y-78485000D02*
X158996200Y-78485000D01*
X158599129Y-77725000D02*
X158996200Y-77725000D01*
X167656200Y-78485000D02*
X161656200Y-78485000D01*
X167656200Y-77725000D02*
X167656200Y-78485000D01*
X161656200Y-77725000D02*
X167656200Y-77725000D01*
X158996200Y-76835000D02*
X161656200Y-76835000D01*
X158599129Y-75945000D02*
X158996200Y-75945000D01*
X158599129Y-75185000D02*
X158996200Y-75185000D01*
X167656200Y-75945000D02*
X161656200Y-75945000D01*
X167656200Y-75185000D02*
X167656200Y-75945000D01*
X161656200Y-75185000D02*
X167656200Y-75185000D01*
X158996200Y-74295000D02*
X161656200Y-74295000D01*
X158666200Y-73405000D02*
X158996200Y-73405000D01*
X158666200Y-72645000D02*
X158996200Y-72645000D01*
X161656200Y-73305000D02*
X167656200Y-73305000D01*
X161656200Y-73185000D02*
X167656200Y-73185000D01*
X161656200Y-73065000D02*
X167656200Y-73065000D01*
X161656200Y-72945000D02*
X167656200Y-72945000D01*
X161656200Y-72825000D02*
X167656200Y-72825000D01*
X161656200Y-72705000D02*
X167656200Y-72705000D01*
X167656200Y-73405000D02*
X161656200Y-73405000D01*
X167656200Y-72645000D02*
X167656200Y-73405000D01*
X161656200Y-72645000D02*
X167656200Y-72645000D01*
X161656200Y-71695000D02*
X158996200Y-71695000D01*
X161656200Y-81975000D02*
X161656200Y-71695000D01*
X158996200Y-81975000D02*
X161656200Y-81975000D01*
X158996200Y-71695000D02*
X158996200Y-81975000D01*
X159682333Y-121541000D02*
X160024867Y-121541000D01*
X159682333Y-120521000D02*
X160024867Y-120521000D01*
X159659533Y-119407400D02*
X160002067Y-119407400D01*
X159659533Y-118387400D02*
X160002067Y-118387400D01*
X158795933Y-84961000D02*
X159138467Y-84961000D01*
X158795933Y-85981000D02*
X159138467Y-85981000D01*
X158795933Y-87809800D02*
X159138467Y-87809800D01*
X158795933Y-86789800D02*
X159138467Y-86789800D01*
X125852133Y-116914200D02*
X126194667Y-116914200D01*
X125852133Y-117934200D02*
X126194667Y-117934200D01*
X125877533Y-115775200D02*
X126220067Y-115775200D01*
X125877533Y-114755200D02*
X126220067Y-114755200D01*
X127602133Y-83898200D02*
X127944667Y-83898200D01*
X127602133Y-82878200D02*
X127944667Y-82878200D01*
X127602133Y-80185800D02*
X127944667Y-80185800D01*
X127602133Y-81205800D02*
X127944667Y-81205800D01*
X118867133Y-94257400D02*
X119209667Y-94257400D01*
X118867133Y-95277400D02*
X119209667Y-95277400D01*
X139085533Y-75135200D02*
X139428067Y-75135200D01*
X139085533Y-74115200D02*
X139428067Y-74115200D01*
X132973867Y-75160600D02*
X132631333Y-75160600D01*
X132973867Y-74140600D02*
X132631333Y-74140600D01*
X138399733Y-85549200D02*
X138742267Y-85549200D01*
X138399733Y-84529200D02*
X138742267Y-84529200D01*
X133395933Y-84503800D02*
X133738467Y-84503800D01*
X133395933Y-85523800D02*
X133738467Y-85523800D01*
X140606933Y-112418400D02*
X140949467Y-112418400D01*
X140606933Y-113438400D02*
X140949467Y-113438400D01*
X140606933Y-114323400D02*
X140949467Y-114323400D01*
X140606933Y-115343400D02*
X140949467Y-115343400D01*
X133954733Y-104646000D02*
X134297267Y-104646000D01*
X133954733Y-105666000D02*
X134297267Y-105666000D01*
X138132667Y-105666000D02*
X137790133Y-105666000D01*
X138132667Y-104646000D02*
X137790133Y-104646000D01*
X140997400Y-89733333D02*
X140997400Y-90075867D01*
X139977400Y-89733333D02*
X139977400Y-90075867D01*
X128429867Y-120546400D02*
X128087333Y-120546400D01*
X128429867Y-121566400D02*
X128087333Y-121566400D01*
X158336133Y-103989600D02*
X158678667Y-103989600D01*
X158336133Y-102969600D02*
X158678667Y-102969600D01*
X111529652Y-97890400D02*
X111007148Y-97890400D01*
X111529652Y-96470400D02*
X111007148Y-96470400D01*
X111522252Y-94082800D02*
X110999748Y-94082800D01*
X111522252Y-95502800D02*
X110999748Y-95502800D01*
X141182400Y-119016600D02*
X130902400Y-119016600D01*
X130902400Y-119016600D02*
X130902400Y-121676600D01*
X130902400Y-121676600D02*
X141182400Y-121676600D01*
X141182400Y-121676600D02*
X141182400Y-119016600D01*
X140232400Y-121676600D02*
X140232400Y-127676600D01*
X140232400Y-127676600D02*
X139472400Y-127676600D01*
X139472400Y-127676600D02*
X139472400Y-121676600D01*
X140172400Y-121676600D02*
X140172400Y-127676600D01*
X140052400Y-121676600D02*
X140052400Y-127676600D01*
X139932400Y-121676600D02*
X139932400Y-127676600D01*
X139812400Y-121676600D02*
X139812400Y-127676600D01*
X139692400Y-121676600D02*
X139692400Y-127676600D01*
X139572400Y-121676600D02*
X139572400Y-127676600D01*
X140232400Y-118686600D02*
X140232400Y-119016600D01*
X139472400Y-118686600D02*
X139472400Y-119016600D01*
X138582400Y-119016600D02*
X138582400Y-121676600D01*
X137692400Y-121676600D02*
X137692400Y-127676600D01*
X137692400Y-127676600D02*
X136932400Y-127676600D01*
X136932400Y-127676600D02*
X136932400Y-121676600D01*
X137692400Y-118619529D02*
X137692400Y-119016600D01*
X136932400Y-118619529D02*
X136932400Y-119016600D01*
X136042400Y-119016600D02*
X136042400Y-121676600D01*
X135152400Y-121676600D02*
X135152400Y-127676600D01*
X135152400Y-127676600D02*
X134392400Y-127676600D01*
X134392400Y-127676600D02*
X134392400Y-121676600D01*
X135152400Y-118619529D02*
X135152400Y-119016600D01*
X134392400Y-118619529D02*
X134392400Y-119016600D01*
X133502400Y-119016600D02*
X133502400Y-121676600D01*
X132612400Y-121676600D02*
X132612400Y-127676600D01*
X132612400Y-127676600D02*
X131852400Y-127676600D01*
X131852400Y-127676600D02*
X131852400Y-121676600D01*
X132612400Y-118619529D02*
X132612400Y-119016600D01*
X131852400Y-118619529D02*
X131852400Y-119016600D01*
X139852400Y-116306600D02*
X141122400Y-116306600D01*
X141122400Y-116306600D02*
X141122400Y-117576600D01*
X158996200Y-105121400D02*
X158996200Y-115401400D01*
X158996200Y-115401400D02*
X161656200Y-115401400D01*
X161656200Y-115401400D02*
X161656200Y-105121400D01*
X161656200Y-105121400D02*
X158996200Y-105121400D01*
X161656200Y-106071400D02*
X167656200Y-106071400D01*
X167656200Y-106071400D02*
X167656200Y-106831400D01*
X167656200Y-106831400D02*
X161656200Y-106831400D01*
X161656200Y-106131400D02*
X167656200Y-106131400D01*
X161656200Y-106251400D02*
X167656200Y-106251400D01*
X161656200Y-106371400D02*
X167656200Y-106371400D01*
X161656200Y-106491400D02*
X167656200Y-106491400D01*
X161656200Y-106611400D02*
X167656200Y-106611400D01*
X161656200Y-106731400D02*
X167656200Y-106731400D01*
X158666200Y-106071400D02*
X158996200Y-106071400D01*
X158666200Y-106831400D02*
X158996200Y-106831400D01*
X158996200Y-107721400D02*
X161656200Y-107721400D01*
X161656200Y-108611400D02*
X167656200Y-108611400D01*
X167656200Y-108611400D02*
X167656200Y-109371400D01*
X167656200Y-109371400D02*
X161656200Y-109371400D01*
X158599129Y-108611400D02*
X158996200Y-108611400D01*
X158599129Y-109371400D02*
X158996200Y-109371400D01*
X158996200Y-110261400D02*
X161656200Y-110261400D01*
X161656200Y-111151400D02*
X167656200Y-111151400D01*
X167656200Y-111151400D02*
X167656200Y-111911400D01*
X167656200Y-111911400D02*
X161656200Y-111911400D01*
X158599129Y-111151400D02*
X158996200Y-111151400D01*
X158599129Y-111911400D02*
X158996200Y-111911400D01*
X158996200Y-112801400D02*
X161656200Y-112801400D01*
X161656200Y-113691400D02*
X167656200Y-113691400D01*
X167656200Y-113691400D02*
X167656200Y-114451400D01*
X167656200Y-114451400D02*
X161656200Y-114451400D01*
X158599129Y-113691400D02*
X158996200Y-113691400D01*
X158599129Y-114451400D02*
X158996200Y-114451400D01*
X156286200Y-106451400D02*
X156286200Y-105181400D01*
X156286200Y-105181400D02*
X157556200Y-105181400D01*
X140793200Y-66148200D02*
X140793200Y-64248200D01*
X140793200Y-70048200D02*
X140793200Y-68048200D01*
X131393200Y-66148200D02*
X131393200Y-64248200D01*
X131393200Y-70048200D02*
X131393200Y-68048200D01*
X140793200Y-64248200D02*
X131393200Y-64248200D01*
X159682333Y-117426200D02*
X160024867Y-117426200D01*
X159682333Y-116406200D02*
X160024867Y-116406200D01*
X158795933Y-84101400D02*
X159138467Y-84101400D01*
X158795933Y-83081400D02*
X159138467Y-83081400D01*
X125902933Y-113692400D02*
X126245467Y-113692400D01*
X125902933Y-112672400D02*
X126245467Y-112672400D01*
X127602133Y-77823600D02*
X127944667Y-77823600D01*
X127602133Y-78843600D02*
X127944667Y-78843600D01*
X119246467Y-96695800D02*
X118903933Y-96695800D01*
X119246467Y-97715800D02*
X118903933Y-97715800D01*
X122582400Y-95826733D02*
X122582400Y-96169267D01*
X121562400Y-95826733D02*
X121562400Y-96169267D01*
X114876733Y-96594200D02*
X115219267Y-96594200D01*
X114876733Y-97614200D02*
X115219267Y-97614200D01*
X132468467Y-87809800D02*
X132125933Y-87809800D01*
X132468467Y-86789800D02*
X132125933Y-86789800D01*
X136504467Y-86815200D02*
X136161933Y-86815200D01*
X136504467Y-87835200D02*
X136161933Y-87835200D01*
X140098933Y-87835200D02*
X140441467Y-87835200D01*
X140098933Y-86815200D02*
X140441467Y-86815200D01*
X114851333Y-94308200D02*
X115193867Y-94308200D01*
X114851333Y-95328200D02*
X115193867Y-95328200D01*
X104906200Y-93002800D02*
X108606200Y-93002800D01*
X104906200Y-99122800D02*
X104906200Y-93002800D01*
X108606200Y-99122800D02*
X104906200Y-99122800D01*
X108606200Y-93002800D02*
X108606200Y-99122800D01*
X139253200Y-99723600D02*
X139703200Y-99723600D01*
X139703200Y-99723600D02*
X139703200Y-99273600D01*
X132933200Y-99723600D02*
X132483200Y-99723600D01*
X132483200Y-99723600D02*
X132483200Y-99273600D01*
X139253200Y-92503600D02*
X139703200Y-92503600D01*
X139703200Y-92503600D02*
X139703200Y-92953600D01*
X132933200Y-92503600D02*
X132483200Y-92503600D01*
X132483200Y-92503600D02*
X132483200Y-92953600D01*
X132483200Y-92953600D02*
X131193200Y-92953600D01*
X149250400Y-120408200D02*
X153110400Y-120408200D01*
X153110400Y-120408200D02*
X153110400Y-120143200D01*
X149250400Y-120408200D02*
X145390400Y-120408200D01*
X145390400Y-120408200D02*
X145390400Y-120143200D01*
X149250400Y-104788200D02*
X153110400Y-104788200D01*
X153110400Y-104788200D02*
X153110400Y-105053200D01*
X149250400Y-104788200D02*
X145390400Y-104788200D01*
X145390400Y-104788200D02*
X145390400Y-105053200D01*
X145390400Y-105053200D02*
X143575400Y-105053200D01*
X145288800Y-71576000D02*
X143473800Y-71576000D01*
X145288800Y-71311000D02*
X145288800Y-71576000D01*
X149148800Y-71311000D02*
X145288800Y-71311000D01*
X153008800Y-71311000D02*
X153008800Y-71576000D01*
X149148800Y-71311000D02*
X153008800Y-71311000D01*
X145288800Y-86931000D02*
X145288800Y-86666000D01*
X149148800Y-86931000D02*
X145288800Y-86931000D01*
X153008800Y-86931000D02*
X153008800Y-86666000D01*
X149148800Y-86931000D02*
X153008800Y-86931000D01*
X112472000Y-104926200D02*
X110657000Y-104926200D01*
X112472000Y-104661200D02*
X112472000Y-104926200D01*
X116332000Y-104661200D02*
X112472000Y-104661200D01*
X120192000Y-104661200D02*
X120192000Y-104926200D01*
X116332000Y-104661200D02*
X120192000Y-104661200D01*
X112472000Y-120281200D02*
X112472000Y-120016200D01*
X116332000Y-120281200D02*
X112472000Y-120281200D01*
X120192000Y-120281200D02*
X120192000Y-120016200D01*
X116332000Y-120281200D02*
X120192000Y-120281200D01*
X117094000Y-87794600D02*
X120954000Y-87794600D01*
X120954000Y-87794600D02*
X120954000Y-87529600D01*
X117094000Y-87794600D02*
X113234000Y-87794600D01*
X113234000Y-87794600D02*
X113234000Y-87529600D01*
X117094000Y-72174600D02*
X120954000Y-72174600D01*
X120954000Y-72174600D02*
X120954000Y-72439600D01*
X117094000Y-72174600D02*
X113234000Y-72174600D01*
X113234000Y-72174600D02*
X113234000Y-72439600D01*
X113234000Y-72439600D02*
X111419000Y-72439600D01*
X134183200Y-76396800D02*
X134183200Y-77656800D01*
X134183200Y-83216800D02*
X134183200Y-81956800D01*
X137943200Y-76396800D02*
X134183200Y-76396800D01*
X140193200Y-83216800D02*
X134183200Y-83216800D01*
X136452200Y-112678400D02*
X130052200Y-112678400D01*
X130052200Y-112678400D02*
X130052200Y-115078400D01*
X130052200Y-115078400D02*
X136452200Y-115078400D01*
X136452200Y-115078400D02*
X136452200Y-112678400D01*
X136452200Y-113528400D02*
X137352200Y-112928400D01*
X137352200Y-112928400D02*
X137552200Y-112928400D01*
X136452200Y-114228400D02*
X137352200Y-114828400D01*
X137352200Y-114828400D02*
X137552200Y-114828400D01*
X132818600Y-106364800D02*
X139218600Y-106364800D01*
X132818600Y-111414800D02*
X139218600Y-111414800D01*
X132818600Y-111414800D02*
G75*
G02X132818600Y-106364800I0J2525000D01*
G01*
X139218600Y-111414800D02*
G75*
G03X139218600Y-106364800I0J2525000D01*
G01*
D11*
X161607866Y-70207380D02*
X161607866Y-70921666D01*
X161560247Y-71064523D01*
X161465009Y-71159761D01*
X161322152Y-71207380D01*
X161226914Y-71207380D01*
X161988819Y-70207380D02*
X162607866Y-70207380D01*
X162274533Y-70588333D01*
X162417390Y-70588333D01*
X162512628Y-70635952D01*
X162560247Y-70683571D01*
X162607866Y-70778809D01*
X162607866Y-71016904D01*
X162560247Y-71112142D01*
X162512628Y-71159761D01*
X162417390Y-71207380D01*
X162131676Y-71207380D01*
X162036438Y-71159761D01*
X161988819Y-71112142D01*
X159686933Y-119958142D02*
X159639314Y-120005761D01*
X159496457Y-120053380D01*
X159401219Y-120053380D01*
X159258361Y-120005761D01*
X159163123Y-119910523D01*
X159115504Y-119815285D01*
X159067885Y-119624809D01*
X159067885Y-119481952D01*
X159115504Y-119291476D01*
X159163123Y-119196238D01*
X159258361Y-119101000D01*
X159401219Y-119053380D01*
X159496457Y-119053380D01*
X159639314Y-119101000D01*
X159686933Y-119148619D01*
X160639314Y-120053380D02*
X160067885Y-120053380D01*
X160353600Y-120053380D02*
X160353600Y-119053380D01*
X160258361Y-119196238D01*
X160163123Y-119291476D01*
X160067885Y-119339095D01*
X159664133Y-117824542D02*
X159616514Y-117872161D01*
X159473657Y-117919780D01*
X159378419Y-117919780D01*
X159235561Y-117872161D01*
X159140323Y-117776923D01*
X159092704Y-117681685D01*
X159045085Y-117491209D01*
X159045085Y-117348352D01*
X159092704Y-117157876D01*
X159140323Y-117062638D01*
X159235561Y-116967400D01*
X159378419Y-116919780D01*
X159473657Y-116919780D01*
X159616514Y-116967400D01*
X159664133Y-117015019D01*
X160045085Y-117015019D02*
X160092704Y-116967400D01*
X160187942Y-116919780D01*
X160426038Y-116919780D01*
X160521276Y-116967400D01*
X160568895Y-117015019D01*
X160616514Y-117110257D01*
X160616514Y-117205495D01*
X160568895Y-117348352D01*
X159997466Y-117919780D01*
X160616514Y-117919780D01*
X158800533Y-84398142D02*
X158752914Y-84445761D01*
X158610057Y-84493380D01*
X158514819Y-84493380D01*
X158371961Y-84445761D01*
X158276723Y-84350523D01*
X158229104Y-84255285D01*
X158181485Y-84064809D01*
X158181485Y-83921952D01*
X158229104Y-83731476D01*
X158276723Y-83636238D01*
X158371961Y-83541000D01*
X158514819Y-83493380D01*
X158610057Y-83493380D01*
X158752914Y-83541000D01*
X158800533Y-83588619D01*
X159133866Y-83493380D02*
X159752914Y-83493380D01*
X159419580Y-83874333D01*
X159562438Y-83874333D01*
X159657676Y-83921952D01*
X159705295Y-83969571D01*
X159752914Y-84064809D01*
X159752914Y-84302904D01*
X159705295Y-84398142D01*
X159657676Y-84445761D01*
X159562438Y-84493380D01*
X159276723Y-84493380D01*
X159181485Y-84445761D01*
X159133866Y-84398142D01*
X158800533Y-86226942D02*
X158752914Y-86274561D01*
X158610057Y-86322180D01*
X158514819Y-86322180D01*
X158371961Y-86274561D01*
X158276723Y-86179323D01*
X158229104Y-86084085D01*
X158181485Y-85893609D01*
X158181485Y-85750752D01*
X158229104Y-85560276D01*
X158276723Y-85465038D01*
X158371961Y-85369800D01*
X158514819Y-85322180D01*
X158610057Y-85322180D01*
X158752914Y-85369800D01*
X158800533Y-85417419D01*
X159657676Y-85655514D02*
X159657676Y-86322180D01*
X159419580Y-85274561D02*
X159181485Y-85988847D01*
X159800533Y-85988847D01*
X125856733Y-116351342D02*
X125809114Y-116398961D01*
X125666257Y-116446580D01*
X125571019Y-116446580D01*
X125428161Y-116398961D01*
X125332923Y-116303723D01*
X125285304Y-116208485D01*
X125237685Y-116018009D01*
X125237685Y-115875152D01*
X125285304Y-115684676D01*
X125332923Y-115589438D01*
X125428161Y-115494200D01*
X125571019Y-115446580D01*
X125666257Y-115446580D01*
X125809114Y-115494200D01*
X125856733Y-115541819D01*
X126761495Y-115446580D02*
X126285304Y-115446580D01*
X126237685Y-115922771D01*
X126285304Y-115875152D01*
X126380542Y-115827533D01*
X126618638Y-115827533D01*
X126713876Y-115875152D01*
X126761495Y-115922771D01*
X126809114Y-116018009D01*
X126809114Y-116256104D01*
X126761495Y-116351342D01*
X126713876Y-116398961D01*
X126618638Y-116446580D01*
X126380542Y-116446580D01*
X126285304Y-116398961D01*
X126237685Y-116351342D01*
X125882133Y-114192342D02*
X125834514Y-114239961D01*
X125691657Y-114287580D01*
X125596419Y-114287580D01*
X125453561Y-114239961D01*
X125358323Y-114144723D01*
X125310704Y-114049485D01*
X125263085Y-113859009D01*
X125263085Y-113716152D01*
X125310704Y-113525676D01*
X125358323Y-113430438D01*
X125453561Y-113335200D01*
X125596419Y-113287580D01*
X125691657Y-113287580D01*
X125834514Y-113335200D01*
X125882133Y-113382819D01*
X126739276Y-113287580D02*
X126548800Y-113287580D01*
X126453561Y-113335200D01*
X126405942Y-113382819D01*
X126310704Y-113525676D01*
X126263085Y-113716152D01*
X126263085Y-114097104D01*
X126310704Y-114192342D01*
X126358323Y-114239961D01*
X126453561Y-114287580D01*
X126644038Y-114287580D01*
X126739276Y-114239961D01*
X126786895Y-114192342D01*
X126834514Y-114097104D01*
X126834514Y-113859009D01*
X126786895Y-113763771D01*
X126739276Y-113716152D01*
X126644038Y-113668533D01*
X126453561Y-113668533D01*
X126358323Y-113716152D01*
X126310704Y-113763771D01*
X126263085Y-113859009D01*
X127606733Y-82315342D02*
X127559114Y-82362961D01*
X127416257Y-82410580D01*
X127321019Y-82410580D01*
X127178161Y-82362961D01*
X127082923Y-82267723D01*
X127035304Y-82172485D01*
X126987685Y-81982009D01*
X126987685Y-81839152D01*
X127035304Y-81648676D01*
X127082923Y-81553438D01*
X127178161Y-81458200D01*
X127321019Y-81410580D01*
X127416257Y-81410580D01*
X127559114Y-81458200D01*
X127606733Y-81505819D01*
X127940066Y-81410580D02*
X128606733Y-81410580D01*
X128178161Y-82410580D01*
X127606733Y-79622942D02*
X127559114Y-79670561D01*
X127416257Y-79718180D01*
X127321019Y-79718180D01*
X127178161Y-79670561D01*
X127082923Y-79575323D01*
X127035304Y-79480085D01*
X126987685Y-79289609D01*
X126987685Y-79146752D01*
X127035304Y-78956276D01*
X127082923Y-78861038D01*
X127178161Y-78765800D01*
X127321019Y-78718180D01*
X127416257Y-78718180D01*
X127559114Y-78765800D01*
X127606733Y-78813419D01*
X128178161Y-79146752D02*
X128082923Y-79099133D01*
X128035304Y-79051514D01*
X127987685Y-78956276D01*
X127987685Y-78908657D01*
X128035304Y-78813419D01*
X128082923Y-78765800D01*
X128178161Y-78718180D01*
X128368638Y-78718180D01*
X128463876Y-78765800D01*
X128511495Y-78813419D01*
X128559114Y-78908657D01*
X128559114Y-78956276D01*
X128511495Y-79051514D01*
X128463876Y-79099133D01*
X128368638Y-79146752D01*
X128178161Y-79146752D01*
X128082923Y-79194371D01*
X128035304Y-79241990D01*
X127987685Y-79337228D01*
X127987685Y-79527704D01*
X128035304Y-79622942D01*
X128082923Y-79670561D01*
X128178161Y-79718180D01*
X128368638Y-79718180D01*
X128463876Y-79670561D01*
X128511495Y-79622942D01*
X128559114Y-79527704D01*
X128559114Y-79337228D01*
X128511495Y-79241990D01*
X128463876Y-79194371D01*
X128368638Y-79146752D01*
X118871733Y-93694542D02*
X118824114Y-93742161D01*
X118681257Y-93789780D01*
X118586019Y-93789780D01*
X118443161Y-93742161D01*
X118347923Y-93646923D01*
X118300304Y-93551685D01*
X118252685Y-93361209D01*
X118252685Y-93218352D01*
X118300304Y-93027876D01*
X118347923Y-92932638D01*
X118443161Y-92837400D01*
X118586019Y-92789780D01*
X118681257Y-92789780D01*
X118824114Y-92837400D01*
X118871733Y-92885019D01*
X119347923Y-93789780D02*
X119538400Y-93789780D01*
X119633638Y-93742161D01*
X119681257Y-93694542D01*
X119776495Y-93551685D01*
X119824114Y-93361209D01*
X119824114Y-92980257D01*
X119776495Y-92885019D01*
X119728876Y-92837400D01*
X119633638Y-92789780D01*
X119443161Y-92789780D01*
X119347923Y-92837400D01*
X119300304Y-92885019D01*
X119252685Y-92980257D01*
X119252685Y-93218352D01*
X119300304Y-93313590D01*
X119347923Y-93361209D01*
X119443161Y-93408828D01*
X119633638Y-93408828D01*
X119728876Y-93361209D01*
X119776495Y-93313590D01*
X119824114Y-93218352D01*
X138613942Y-73552342D02*
X138566323Y-73599961D01*
X138423466Y-73647580D01*
X138328228Y-73647580D01*
X138185371Y-73599961D01*
X138090133Y-73504723D01*
X138042514Y-73409485D01*
X137994895Y-73219009D01*
X137994895Y-73076152D01*
X138042514Y-72885676D01*
X138090133Y-72790438D01*
X138185371Y-72695200D01*
X138328228Y-72647580D01*
X138423466Y-72647580D01*
X138566323Y-72695200D01*
X138613942Y-72742819D01*
X139566323Y-73647580D02*
X138994895Y-73647580D01*
X139280609Y-73647580D02*
X139280609Y-72647580D01*
X139185371Y-72790438D01*
X139090133Y-72885676D01*
X138994895Y-72933295D01*
X140185371Y-72647580D02*
X140280609Y-72647580D01*
X140375847Y-72695200D01*
X140423466Y-72742819D01*
X140471085Y-72838057D01*
X140518704Y-73028533D01*
X140518704Y-73266628D01*
X140471085Y-73457104D01*
X140423466Y-73552342D01*
X140375847Y-73599961D01*
X140280609Y-73647580D01*
X140185371Y-73647580D01*
X140090133Y-73599961D01*
X140042514Y-73552342D01*
X139994895Y-73457104D01*
X139947276Y-73266628D01*
X139947276Y-73028533D01*
X139994895Y-72838057D01*
X140042514Y-72742819D01*
X140090133Y-72695200D01*
X140185371Y-72647580D01*
X132159742Y-76437742D02*
X132112123Y-76485361D01*
X131969266Y-76532980D01*
X131874028Y-76532980D01*
X131731171Y-76485361D01*
X131635933Y-76390123D01*
X131588314Y-76294885D01*
X131540695Y-76104409D01*
X131540695Y-75961552D01*
X131588314Y-75771076D01*
X131635933Y-75675838D01*
X131731171Y-75580600D01*
X131874028Y-75532980D01*
X131969266Y-75532980D01*
X132112123Y-75580600D01*
X132159742Y-75628219D01*
X133112123Y-76532980D02*
X132540695Y-76532980D01*
X132826409Y-76532980D02*
X132826409Y-75532980D01*
X132731171Y-75675838D01*
X132635933Y-75771076D01*
X132540695Y-75818695D01*
X134064504Y-76532980D02*
X133493076Y-76532980D01*
X133778790Y-76532980D02*
X133778790Y-75532980D01*
X133683552Y-75675838D01*
X133588314Y-75771076D01*
X133493076Y-75818695D01*
X137928142Y-83966342D02*
X137880523Y-84013961D01*
X137737666Y-84061580D01*
X137642428Y-84061580D01*
X137499571Y-84013961D01*
X137404333Y-83918723D01*
X137356714Y-83823485D01*
X137309095Y-83633009D01*
X137309095Y-83490152D01*
X137356714Y-83299676D01*
X137404333Y-83204438D01*
X137499571Y-83109200D01*
X137642428Y-83061580D01*
X137737666Y-83061580D01*
X137880523Y-83109200D01*
X137928142Y-83156819D01*
X138880523Y-84061580D02*
X138309095Y-84061580D01*
X138594809Y-84061580D02*
X138594809Y-83061580D01*
X138499571Y-83204438D01*
X138404333Y-83299676D01*
X138309095Y-83347295D01*
X139261476Y-83156819D02*
X139309095Y-83109200D01*
X139404333Y-83061580D01*
X139642428Y-83061580D01*
X139737666Y-83109200D01*
X139785285Y-83156819D01*
X139832904Y-83252057D01*
X139832904Y-83347295D01*
X139785285Y-83490152D01*
X139213857Y-84061580D01*
X139832904Y-84061580D01*
X132924342Y-83940942D02*
X132876723Y-83988561D01*
X132733866Y-84036180D01*
X132638628Y-84036180D01*
X132495771Y-83988561D01*
X132400533Y-83893323D01*
X132352914Y-83798085D01*
X132305295Y-83607609D01*
X132305295Y-83464752D01*
X132352914Y-83274276D01*
X132400533Y-83179038D01*
X132495771Y-83083800D01*
X132638628Y-83036180D01*
X132733866Y-83036180D01*
X132876723Y-83083800D01*
X132924342Y-83131419D01*
X133876723Y-84036180D02*
X133305295Y-84036180D01*
X133591009Y-84036180D02*
X133591009Y-83036180D01*
X133495771Y-83179038D01*
X133400533Y-83274276D01*
X133305295Y-83321895D01*
X134210057Y-83036180D02*
X134829104Y-83036180D01*
X134495771Y-83417133D01*
X134638628Y-83417133D01*
X134733866Y-83464752D01*
X134781485Y-83512371D01*
X134829104Y-83607609D01*
X134829104Y-83845704D01*
X134781485Y-83940942D01*
X134733866Y-83988561D01*
X134638628Y-84036180D01*
X134352914Y-84036180D01*
X134257676Y-83988561D01*
X134210057Y-83940942D01*
X140135342Y-111855542D02*
X140087723Y-111903161D01*
X139944866Y-111950780D01*
X139849628Y-111950780D01*
X139706771Y-111903161D01*
X139611533Y-111807923D01*
X139563914Y-111712685D01*
X139516295Y-111522209D01*
X139516295Y-111379352D01*
X139563914Y-111188876D01*
X139611533Y-111093638D01*
X139706771Y-110998400D01*
X139849628Y-110950780D01*
X139944866Y-110950780D01*
X140087723Y-110998400D01*
X140135342Y-111046019D01*
X141087723Y-111950780D02*
X140516295Y-111950780D01*
X140802009Y-111950780D02*
X140802009Y-110950780D01*
X140706771Y-111093638D01*
X140611533Y-111188876D01*
X140516295Y-111236495D01*
X141944866Y-111284114D02*
X141944866Y-111950780D01*
X141706771Y-110903161D02*
X141468676Y-111617447D01*
X142087723Y-111617447D01*
X140135342Y-113760542D02*
X140087723Y-113808161D01*
X139944866Y-113855780D01*
X139849628Y-113855780D01*
X139706771Y-113808161D01*
X139611533Y-113712923D01*
X139563914Y-113617685D01*
X139516295Y-113427209D01*
X139516295Y-113284352D01*
X139563914Y-113093876D01*
X139611533Y-112998638D01*
X139706771Y-112903400D01*
X139849628Y-112855780D01*
X139944866Y-112855780D01*
X140087723Y-112903400D01*
X140135342Y-112951019D01*
X141087723Y-113855780D02*
X140516295Y-113855780D01*
X140802009Y-113855780D02*
X140802009Y-112855780D01*
X140706771Y-112998638D01*
X140611533Y-113093876D01*
X140516295Y-113141495D01*
X141992485Y-112855780D02*
X141516295Y-112855780D01*
X141468676Y-113331971D01*
X141516295Y-113284352D01*
X141611533Y-113236733D01*
X141849628Y-113236733D01*
X141944866Y-113284352D01*
X141992485Y-113331971D01*
X142040104Y-113427209D01*
X142040104Y-113665304D01*
X141992485Y-113760542D01*
X141944866Y-113808161D01*
X141849628Y-113855780D01*
X141611533Y-113855780D01*
X141516295Y-113808161D01*
X141468676Y-113760542D01*
X133483142Y-104083142D02*
X133435523Y-104130761D01*
X133292666Y-104178380D01*
X133197428Y-104178380D01*
X133054571Y-104130761D01*
X132959333Y-104035523D01*
X132911714Y-103940285D01*
X132864095Y-103749809D01*
X132864095Y-103606952D01*
X132911714Y-103416476D01*
X132959333Y-103321238D01*
X133054571Y-103226000D01*
X133197428Y-103178380D01*
X133292666Y-103178380D01*
X133435523Y-103226000D01*
X133483142Y-103273619D01*
X134435523Y-104178380D02*
X133864095Y-104178380D01*
X134149809Y-104178380D02*
X134149809Y-103178380D01*
X134054571Y-103321238D01*
X133959333Y-103416476D01*
X133864095Y-103464095D01*
X135292666Y-103178380D02*
X135102190Y-103178380D01*
X135006952Y-103226000D01*
X134959333Y-103273619D01*
X134864095Y-103416476D01*
X134816476Y-103606952D01*
X134816476Y-103987904D01*
X134864095Y-104083142D01*
X134911714Y-104130761D01*
X135006952Y-104178380D01*
X135197428Y-104178380D01*
X135292666Y-104130761D01*
X135340285Y-104083142D01*
X135387904Y-103987904D01*
X135387904Y-103749809D01*
X135340285Y-103654571D01*
X135292666Y-103606952D01*
X135197428Y-103559333D01*
X135006952Y-103559333D01*
X134911714Y-103606952D01*
X134864095Y-103654571D01*
X134816476Y-103749809D01*
X137318542Y-106943142D02*
X137270923Y-106990761D01*
X137128066Y-107038380D01*
X137032828Y-107038380D01*
X136889971Y-106990761D01*
X136794733Y-106895523D01*
X136747114Y-106800285D01*
X136699495Y-106609809D01*
X136699495Y-106466952D01*
X136747114Y-106276476D01*
X136794733Y-106181238D01*
X136889971Y-106086000D01*
X137032828Y-106038380D01*
X137128066Y-106038380D01*
X137270923Y-106086000D01*
X137318542Y-106133619D01*
X138270923Y-107038380D02*
X137699495Y-107038380D01*
X137985209Y-107038380D02*
X137985209Y-106038380D01*
X137889971Y-106181238D01*
X137794733Y-106276476D01*
X137699495Y-106324095D01*
X138604257Y-106038380D02*
X139270923Y-106038380D01*
X138842352Y-107038380D01*
X142274542Y-90547457D02*
X142322161Y-90595076D01*
X142369780Y-90737933D01*
X142369780Y-90833171D01*
X142322161Y-90976028D01*
X142226923Y-91071266D01*
X142131685Y-91118885D01*
X141941209Y-91166504D01*
X141798352Y-91166504D01*
X141607876Y-91118885D01*
X141512638Y-91071266D01*
X141417400Y-90976028D01*
X141369780Y-90833171D01*
X141369780Y-90737933D01*
X141417400Y-90595076D01*
X141465019Y-90547457D01*
X142369780Y-89595076D02*
X142369780Y-90166504D01*
X142369780Y-89880790D02*
X141369780Y-89880790D01*
X141512638Y-89976028D01*
X141607876Y-90071266D01*
X141655495Y-90166504D01*
X141798352Y-89023647D02*
X141750733Y-89118885D01*
X141703114Y-89166504D01*
X141607876Y-89214123D01*
X141560257Y-89214123D01*
X141465019Y-89166504D01*
X141417400Y-89118885D01*
X141369780Y-89023647D01*
X141369780Y-88833171D01*
X141417400Y-88737933D01*
X141465019Y-88690314D01*
X141560257Y-88642695D01*
X141607876Y-88642695D01*
X141703114Y-88690314D01*
X141750733Y-88737933D01*
X141798352Y-88833171D01*
X141798352Y-89023647D01*
X141845971Y-89118885D01*
X141893590Y-89166504D01*
X141988828Y-89214123D01*
X142179304Y-89214123D01*
X142274542Y-89166504D01*
X142322161Y-89118885D01*
X142369780Y-89023647D01*
X142369780Y-88833171D01*
X142322161Y-88737933D01*
X142274542Y-88690314D01*
X142179304Y-88642695D01*
X141988828Y-88642695D01*
X141893590Y-88690314D01*
X141845971Y-88737933D01*
X141798352Y-88833171D01*
X124350542Y-121413542D02*
X124302923Y-121461161D01*
X124160066Y-121508780D01*
X124064828Y-121508780D01*
X123921971Y-121461161D01*
X123826733Y-121365923D01*
X123779114Y-121270685D01*
X123731495Y-121080209D01*
X123731495Y-120937352D01*
X123779114Y-120746876D01*
X123826733Y-120651638D01*
X123921971Y-120556400D01*
X124064828Y-120508780D01*
X124160066Y-120508780D01*
X124302923Y-120556400D01*
X124350542Y-120604019D01*
X125302923Y-121508780D02*
X124731495Y-121508780D01*
X125017209Y-121508780D02*
X125017209Y-120508780D01*
X124921971Y-120651638D01*
X124826733Y-120746876D01*
X124731495Y-120794495D01*
X125779114Y-121508780D02*
X125969590Y-121508780D01*
X126064828Y-121461161D01*
X126112447Y-121413542D01*
X126207685Y-121270685D01*
X126255304Y-121080209D01*
X126255304Y-120699257D01*
X126207685Y-120604019D01*
X126160066Y-120556400D01*
X126064828Y-120508780D01*
X125874352Y-120508780D01*
X125779114Y-120556400D01*
X125731495Y-120604019D01*
X125683876Y-120699257D01*
X125683876Y-120937352D01*
X125731495Y-121032590D01*
X125779114Y-121080209D01*
X125874352Y-121127828D01*
X126064828Y-121127828D01*
X126160066Y-121080209D01*
X126207685Y-121032590D01*
X126255304Y-120937352D01*
X157864542Y-102406742D02*
X157816923Y-102454361D01*
X157674066Y-102501980D01*
X157578828Y-102501980D01*
X157435971Y-102454361D01*
X157340733Y-102359123D01*
X157293114Y-102263885D01*
X157245495Y-102073409D01*
X157245495Y-101930552D01*
X157293114Y-101740076D01*
X157340733Y-101644838D01*
X157435971Y-101549600D01*
X157578828Y-101501980D01*
X157674066Y-101501980D01*
X157816923Y-101549600D01*
X157864542Y-101597219D01*
X158245495Y-101597219D02*
X158293114Y-101549600D01*
X158388352Y-101501980D01*
X158626447Y-101501980D01*
X158721685Y-101549600D01*
X158769304Y-101597219D01*
X158816923Y-101692457D01*
X158816923Y-101787695D01*
X158769304Y-101930552D01*
X158197876Y-102501980D01*
X158816923Y-102501980D01*
X159435971Y-101501980D02*
X159531209Y-101501980D01*
X159626447Y-101549600D01*
X159674066Y-101597219D01*
X159721685Y-101692457D01*
X159769304Y-101882933D01*
X159769304Y-102121028D01*
X159721685Y-102311504D01*
X159674066Y-102406742D01*
X159626447Y-102454361D01*
X159531209Y-102501980D01*
X159435971Y-102501980D01*
X159340733Y-102454361D01*
X159293114Y-102406742D01*
X159245495Y-102311504D01*
X159197876Y-102121028D01*
X159197876Y-101882933D01*
X159245495Y-101692457D01*
X159293114Y-101597219D01*
X159340733Y-101549600D01*
X159435971Y-101501980D01*
X110530304Y-99282780D02*
X110530304Y-98282780D01*
X110768400Y-98282780D01*
X110911257Y-98330400D01*
X111006495Y-98425638D01*
X111054114Y-98520876D01*
X111101733Y-98711352D01*
X111101733Y-98854209D01*
X111054114Y-99044685D01*
X111006495Y-99139923D01*
X110911257Y-99235161D01*
X110768400Y-99282780D01*
X110530304Y-99282780D01*
X112054114Y-99282780D02*
X111482685Y-99282780D01*
X111768400Y-99282780D02*
X111768400Y-98282780D01*
X111673161Y-98425638D01*
X111577923Y-98520876D01*
X111482685Y-98568495D01*
X110522904Y-96895180D02*
X110522904Y-95895180D01*
X110761000Y-95895180D01*
X110903857Y-95942800D01*
X110999095Y-96038038D01*
X111046714Y-96133276D01*
X111094333Y-96323752D01*
X111094333Y-96466609D01*
X111046714Y-96657085D01*
X110999095Y-96752323D01*
X110903857Y-96847561D01*
X110761000Y-96895180D01*
X110522904Y-96895180D01*
X111475285Y-95990419D02*
X111522904Y-95942800D01*
X111618142Y-95895180D01*
X111856238Y-95895180D01*
X111951476Y-95942800D01*
X111999095Y-95990419D01*
X112046714Y-96085657D01*
X112046714Y-96180895D01*
X111999095Y-96323752D01*
X111427666Y-96895180D01*
X112046714Y-96895180D01*
X141574780Y-122294933D02*
X142289066Y-122294933D01*
X142431923Y-122342552D01*
X142527161Y-122437790D01*
X142574780Y-122580647D01*
X142574780Y-122675885D01*
X142574780Y-121294933D02*
X142574780Y-121866361D01*
X142574780Y-121580647D02*
X141574780Y-121580647D01*
X141717638Y-121675885D01*
X141812876Y-121771123D01*
X141860495Y-121866361D01*
X161607866Y-103633780D02*
X161607866Y-104348066D01*
X161560247Y-104490923D01*
X161465009Y-104586161D01*
X161322152Y-104633780D01*
X161226914Y-104633780D01*
X162036438Y-103729019D02*
X162084057Y-103681400D01*
X162179295Y-103633780D01*
X162417390Y-103633780D01*
X162512628Y-103681400D01*
X162560247Y-103729019D01*
X162607866Y-103824257D01*
X162607866Y-103919495D01*
X162560247Y-104062352D01*
X161988819Y-104633780D01*
X162607866Y-104633780D01*
X135759866Y-73245580D02*
X135759866Y-73959866D01*
X135712247Y-74102723D01*
X135617009Y-74197961D01*
X135474152Y-74245580D01*
X135378914Y-74245580D01*
X136664628Y-73578914D02*
X136664628Y-74245580D01*
X136426533Y-73197961D02*
X136188438Y-73912247D01*
X136807485Y-73912247D01*
X159686933Y-115938580D02*
X159353600Y-115462390D01*
X159115504Y-115938580D02*
X159115504Y-114938580D01*
X159496457Y-114938580D01*
X159591695Y-114986200D01*
X159639314Y-115033819D01*
X159686933Y-115129057D01*
X159686933Y-115271914D01*
X159639314Y-115367152D01*
X159591695Y-115414771D01*
X159496457Y-115462390D01*
X159115504Y-115462390D01*
X160639314Y-115938580D02*
X160067885Y-115938580D01*
X160353600Y-115938580D02*
X160353600Y-114938580D01*
X160258361Y-115081438D01*
X160163123Y-115176676D01*
X160067885Y-115224295D01*
X158800533Y-82613780D02*
X158467200Y-82137590D01*
X158229104Y-82613780D02*
X158229104Y-81613780D01*
X158610057Y-81613780D01*
X158705295Y-81661400D01*
X158752914Y-81709019D01*
X158800533Y-81804257D01*
X158800533Y-81947114D01*
X158752914Y-82042352D01*
X158705295Y-82089971D01*
X158610057Y-82137590D01*
X158229104Y-82137590D01*
X159181485Y-81709019D02*
X159229104Y-81661400D01*
X159324342Y-81613780D01*
X159562438Y-81613780D01*
X159657676Y-81661400D01*
X159705295Y-81709019D01*
X159752914Y-81804257D01*
X159752914Y-81899495D01*
X159705295Y-82042352D01*
X159133866Y-82613780D01*
X159752914Y-82613780D01*
X125907533Y-112204780D02*
X125574200Y-111728590D01*
X125336104Y-112204780D02*
X125336104Y-111204780D01*
X125717057Y-111204780D01*
X125812295Y-111252400D01*
X125859914Y-111300019D01*
X125907533Y-111395257D01*
X125907533Y-111538114D01*
X125859914Y-111633352D01*
X125812295Y-111680971D01*
X125717057Y-111728590D01*
X125336104Y-111728590D01*
X126240866Y-111204780D02*
X126859914Y-111204780D01*
X126526580Y-111585733D01*
X126669438Y-111585733D01*
X126764676Y-111633352D01*
X126812295Y-111680971D01*
X126859914Y-111776209D01*
X126859914Y-112014304D01*
X126812295Y-112109542D01*
X126764676Y-112157161D01*
X126669438Y-112204780D01*
X126383723Y-112204780D01*
X126288485Y-112157161D01*
X126240866Y-112109542D01*
X127606733Y-77355980D02*
X127273400Y-76879790D01*
X127035304Y-77355980D02*
X127035304Y-76355980D01*
X127416257Y-76355980D01*
X127511495Y-76403600D01*
X127559114Y-76451219D01*
X127606733Y-76546457D01*
X127606733Y-76689314D01*
X127559114Y-76784552D01*
X127511495Y-76832171D01*
X127416257Y-76879790D01*
X127035304Y-76879790D01*
X128463876Y-76689314D02*
X128463876Y-77355980D01*
X128225780Y-76308361D02*
X127987685Y-77022647D01*
X128606733Y-77022647D01*
X118908533Y-99088180D02*
X118575200Y-98611990D01*
X118337104Y-99088180D02*
X118337104Y-98088180D01*
X118718057Y-98088180D01*
X118813295Y-98135800D01*
X118860914Y-98183419D01*
X118908533Y-98278657D01*
X118908533Y-98421514D01*
X118860914Y-98516752D01*
X118813295Y-98564371D01*
X118718057Y-98611990D01*
X118337104Y-98611990D01*
X119813295Y-98088180D02*
X119337104Y-98088180D01*
X119289485Y-98564371D01*
X119337104Y-98516752D01*
X119432342Y-98469133D01*
X119670438Y-98469133D01*
X119765676Y-98516752D01*
X119813295Y-98564371D01*
X119860914Y-98659609D01*
X119860914Y-98897704D01*
X119813295Y-98992942D01*
X119765676Y-99040561D01*
X119670438Y-99088180D01*
X119432342Y-99088180D01*
X119337104Y-99040561D01*
X119289485Y-98992942D01*
X123954780Y-96164666D02*
X123478590Y-96498000D01*
X123954780Y-96736095D02*
X122954780Y-96736095D01*
X122954780Y-96355142D01*
X123002400Y-96259904D01*
X123050019Y-96212285D01*
X123145257Y-96164666D01*
X123288114Y-96164666D01*
X123383352Y-96212285D01*
X123430971Y-96259904D01*
X123478590Y-96355142D01*
X123478590Y-96736095D01*
X122954780Y-95307523D02*
X122954780Y-95498000D01*
X123002400Y-95593238D01*
X123050019Y-95640857D01*
X123192876Y-95736095D01*
X123383352Y-95783714D01*
X123764304Y-95783714D01*
X123859542Y-95736095D01*
X123907161Y-95688476D01*
X123954780Y-95593238D01*
X123954780Y-95402761D01*
X123907161Y-95307523D01*
X123859542Y-95259904D01*
X123764304Y-95212285D01*
X123526209Y-95212285D01*
X123430971Y-95259904D01*
X123383352Y-95307523D01*
X123335733Y-95402761D01*
X123335733Y-95593238D01*
X123383352Y-95688476D01*
X123430971Y-95736095D01*
X123526209Y-95783714D01*
X114881333Y-96126580D02*
X114548000Y-95650390D01*
X114309904Y-96126580D02*
X114309904Y-95126580D01*
X114690857Y-95126580D01*
X114786095Y-95174200D01*
X114833714Y-95221819D01*
X114881333Y-95317057D01*
X114881333Y-95459914D01*
X114833714Y-95555152D01*
X114786095Y-95602771D01*
X114690857Y-95650390D01*
X114309904Y-95650390D01*
X115452761Y-95555152D02*
X115357523Y-95507533D01*
X115309904Y-95459914D01*
X115262285Y-95364676D01*
X115262285Y-95317057D01*
X115309904Y-95221819D01*
X115357523Y-95174200D01*
X115452761Y-95126580D01*
X115643238Y-95126580D01*
X115738476Y-95174200D01*
X115786095Y-95221819D01*
X115833714Y-95317057D01*
X115833714Y-95364676D01*
X115786095Y-95459914D01*
X115738476Y-95507533D01*
X115643238Y-95555152D01*
X115452761Y-95555152D01*
X115357523Y-95602771D01*
X115309904Y-95650390D01*
X115262285Y-95745628D01*
X115262285Y-95936104D01*
X115309904Y-96031342D01*
X115357523Y-96078961D01*
X115452761Y-96126580D01*
X115643238Y-96126580D01*
X115738476Y-96078961D01*
X115786095Y-96031342D01*
X115833714Y-95936104D01*
X115833714Y-95745628D01*
X115786095Y-95650390D01*
X115738476Y-95602771D01*
X115643238Y-95555152D01*
X132130533Y-89182180D02*
X131797200Y-88705990D01*
X131559104Y-89182180D02*
X131559104Y-88182180D01*
X131940057Y-88182180D01*
X132035295Y-88229800D01*
X132082914Y-88277419D01*
X132130533Y-88372657D01*
X132130533Y-88515514D01*
X132082914Y-88610752D01*
X132035295Y-88658371D01*
X131940057Y-88705990D01*
X131559104Y-88705990D01*
X132606723Y-89182180D02*
X132797200Y-89182180D01*
X132892438Y-89134561D01*
X132940057Y-89086942D01*
X133035295Y-88944085D01*
X133082914Y-88753609D01*
X133082914Y-88372657D01*
X133035295Y-88277419D01*
X132987676Y-88229800D01*
X132892438Y-88182180D01*
X132701961Y-88182180D01*
X132606723Y-88229800D01*
X132559104Y-88277419D01*
X132511485Y-88372657D01*
X132511485Y-88610752D01*
X132559104Y-88705990D01*
X132606723Y-88753609D01*
X132701961Y-88801228D01*
X132892438Y-88801228D01*
X132987676Y-88753609D01*
X133035295Y-88705990D01*
X133082914Y-88610752D01*
X135690342Y-89207580D02*
X135357009Y-88731390D01*
X135118914Y-89207580D02*
X135118914Y-88207580D01*
X135499866Y-88207580D01*
X135595104Y-88255200D01*
X135642723Y-88302819D01*
X135690342Y-88398057D01*
X135690342Y-88540914D01*
X135642723Y-88636152D01*
X135595104Y-88683771D01*
X135499866Y-88731390D01*
X135118914Y-88731390D01*
X136642723Y-89207580D02*
X136071295Y-89207580D01*
X136357009Y-89207580D02*
X136357009Y-88207580D01*
X136261771Y-88350438D01*
X136166533Y-88445676D01*
X136071295Y-88493295D01*
X137261771Y-88207580D02*
X137357009Y-88207580D01*
X137452247Y-88255200D01*
X137499866Y-88302819D01*
X137547485Y-88398057D01*
X137595104Y-88588533D01*
X137595104Y-88826628D01*
X137547485Y-89017104D01*
X137499866Y-89112342D01*
X137452247Y-89159961D01*
X137357009Y-89207580D01*
X137261771Y-89207580D01*
X137166533Y-89159961D01*
X137118914Y-89112342D01*
X137071295Y-89017104D01*
X137023676Y-88826628D01*
X137023676Y-88588533D01*
X137071295Y-88398057D01*
X137118914Y-88302819D01*
X137166533Y-88255200D01*
X137261771Y-88207580D01*
X139627342Y-86347580D02*
X139294009Y-85871390D01*
X139055914Y-86347580D02*
X139055914Y-85347580D01*
X139436866Y-85347580D01*
X139532104Y-85395200D01*
X139579723Y-85442819D01*
X139627342Y-85538057D01*
X139627342Y-85680914D01*
X139579723Y-85776152D01*
X139532104Y-85823771D01*
X139436866Y-85871390D01*
X139055914Y-85871390D01*
X140579723Y-86347580D02*
X140008295Y-86347580D01*
X140294009Y-86347580D02*
X140294009Y-85347580D01*
X140198771Y-85490438D01*
X140103533Y-85585676D01*
X140008295Y-85633295D01*
X141532104Y-86347580D02*
X140960676Y-86347580D01*
X141246390Y-86347580D02*
X141246390Y-85347580D01*
X141151152Y-85490438D01*
X141055914Y-85585676D01*
X140960676Y-85633295D01*
X114379742Y-93840580D02*
X114046409Y-93364390D01*
X113808314Y-93840580D02*
X113808314Y-92840580D01*
X114189266Y-92840580D01*
X114284504Y-92888200D01*
X114332123Y-92935819D01*
X114379742Y-93031057D01*
X114379742Y-93173914D01*
X114332123Y-93269152D01*
X114284504Y-93316771D01*
X114189266Y-93364390D01*
X113808314Y-93364390D01*
X115332123Y-93840580D02*
X114760695Y-93840580D01*
X115046409Y-93840580D02*
X115046409Y-92840580D01*
X114951171Y-92983438D01*
X114855933Y-93078676D01*
X114760695Y-93126295D01*
X115713076Y-92935819D02*
X115760695Y-92888200D01*
X115855933Y-92840580D01*
X116094028Y-92840580D01*
X116189266Y-92888200D01*
X116236885Y-92935819D01*
X116284504Y-93031057D01*
X116284504Y-93126295D01*
X116236885Y-93269152D01*
X115665457Y-93840580D01*
X116284504Y-93840580D01*
X109760961Y-97396133D02*
X109808580Y-97253276D01*
X109808580Y-97015180D01*
X109760961Y-96919942D01*
X109713342Y-96872323D01*
X109618104Y-96824704D01*
X109522866Y-96824704D01*
X109427628Y-96872323D01*
X109380009Y-96919942D01*
X109332390Y-97015180D01*
X109284771Y-97205657D01*
X109237152Y-97300895D01*
X109189533Y-97348514D01*
X109094295Y-97396133D01*
X108999057Y-97396133D01*
X108903819Y-97348514D01*
X108856200Y-97300895D01*
X108808580Y-97205657D01*
X108808580Y-96967561D01*
X108856200Y-96824704D01*
X108808580Y-96491371D02*
X109808580Y-96253276D01*
X109094295Y-96062800D01*
X109808580Y-95872323D01*
X108808580Y-95634228D01*
X109808580Y-94729466D02*
X109808580Y-95300895D01*
X109808580Y-95015180D02*
X108808580Y-95015180D01*
X108951438Y-95110419D01*
X109046676Y-95205657D01*
X109094295Y-95300895D01*
X135331295Y-89715980D02*
X135331295Y-90525504D01*
X135378914Y-90620742D01*
X135426533Y-90668361D01*
X135521771Y-90715980D01*
X135712247Y-90715980D01*
X135807485Y-90668361D01*
X135855104Y-90620742D01*
X135902723Y-90525504D01*
X135902723Y-89715980D01*
X136569390Y-89715980D02*
X136664628Y-89715980D01*
X136759866Y-89763600D01*
X136807485Y-89811219D01*
X136855104Y-89906457D01*
X136902723Y-90096933D01*
X136902723Y-90335028D01*
X136855104Y-90525504D01*
X136807485Y-90620742D01*
X136759866Y-90668361D01*
X136664628Y-90715980D01*
X136569390Y-90715980D01*
X136474152Y-90668361D01*
X136426533Y-90620742D01*
X136378914Y-90525504D01*
X136331295Y-90335028D01*
X136331295Y-90096933D01*
X136378914Y-89906457D01*
X136426533Y-89811219D01*
X136474152Y-89763600D01*
X136569390Y-89715980D01*
X148488495Y-103400580D02*
X148488495Y-104210104D01*
X148536114Y-104305342D01*
X148583733Y-104352961D01*
X148678971Y-104400580D01*
X148869447Y-104400580D01*
X148964685Y-104352961D01*
X149012304Y-104305342D01*
X149059923Y-104210104D01*
X149059923Y-103400580D01*
X150059923Y-104400580D02*
X149488495Y-104400580D01*
X149774209Y-104400580D02*
X149774209Y-103400580D01*
X149678971Y-103543438D01*
X149583733Y-103638676D01*
X149488495Y-103686295D01*
X148386895Y-69923380D02*
X148386895Y-70732904D01*
X148434514Y-70828142D01*
X148482133Y-70875761D01*
X148577371Y-70923380D01*
X148767847Y-70923380D01*
X148863085Y-70875761D01*
X148910704Y-70828142D01*
X148958323Y-70732904D01*
X148958323Y-69923380D01*
X149386895Y-70018619D02*
X149434514Y-69971000D01*
X149529752Y-69923380D01*
X149767847Y-69923380D01*
X149863085Y-69971000D01*
X149910704Y-70018619D01*
X149958323Y-70113857D01*
X149958323Y-70209095D01*
X149910704Y-70351952D01*
X149339276Y-70923380D01*
X149958323Y-70923380D01*
X115570095Y-103273580D02*
X115570095Y-104083104D01*
X115617714Y-104178342D01*
X115665333Y-104225961D01*
X115760571Y-104273580D01*
X115951047Y-104273580D01*
X116046285Y-104225961D01*
X116093904Y-104178342D01*
X116141523Y-104083104D01*
X116141523Y-103273580D01*
X116522476Y-103273580D02*
X117141523Y-103273580D01*
X116808190Y-103654533D01*
X116951047Y-103654533D01*
X117046285Y-103702152D01*
X117093904Y-103749771D01*
X117141523Y-103845009D01*
X117141523Y-104083104D01*
X117093904Y-104178342D01*
X117046285Y-104225961D01*
X116951047Y-104273580D01*
X116665333Y-104273580D01*
X116570095Y-104225961D01*
X116522476Y-104178342D01*
X116332095Y-70786980D02*
X116332095Y-71596504D01*
X116379714Y-71691742D01*
X116427333Y-71739361D01*
X116522571Y-71786980D01*
X116713047Y-71786980D01*
X116808285Y-71739361D01*
X116855904Y-71691742D01*
X116903523Y-71596504D01*
X116903523Y-70786980D01*
X117808285Y-71120314D02*
X117808285Y-71786980D01*
X117570190Y-70739361D02*
X117332095Y-71453647D01*
X117951142Y-71453647D01*
X135331295Y-83759180D02*
X135331295Y-84568704D01*
X135378914Y-84663942D01*
X135426533Y-84711561D01*
X135521771Y-84759180D01*
X135712247Y-84759180D01*
X135807485Y-84711561D01*
X135855104Y-84663942D01*
X135902723Y-84568704D01*
X135902723Y-83759180D01*
X136426533Y-84759180D02*
X136617009Y-84759180D01*
X136712247Y-84711561D01*
X136759866Y-84663942D01*
X136855104Y-84521085D01*
X136902723Y-84330609D01*
X136902723Y-83949657D01*
X136855104Y-83854419D01*
X136807485Y-83806800D01*
X136712247Y-83759180D01*
X136521771Y-83759180D01*
X136426533Y-83806800D01*
X136378914Y-83854419D01*
X136331295Y-83949657D01*
X136331295Y-84187752D01*
X136378914Y-84282990D01*
X136426533Y-84330609D01*
X136521771Y-84378228D01*
X136712247Y-84378228D01*
X136807485Y-84330609D01*
X136855104Y-84282990D01*
X136902723Y-84187752D01*
X136151009Y-111334590D02*
X136151009Y-111810780D01*
X135817676Y-110810780D02*
X136151009Y-111334590D01*
X136484342Y-110810780D01*
X137341485Y-111810780D02*
X136770057Y-111810780D01*
X137055771Y-111810780D02*
X137055771Y-110810780D01*
X136960533Y-110953638D01*
X136865295Y-111048876D01*
X136770057Y-111096495D01*
X135542409Y-105340990D02*
X135542409Y-105817180D01*
X135209076Y-104817180D02*
X135542409Y-105340990D01*
X135875742Y-104817180D01*
X136161457Y-104912419D02*
X136209076Y-104864800D01*
X136304314Y-104817180D01*
X136542409Y-104817180D01*
X136637647Y-104864800D01*
X136685266Y-104912419D01*
X136732885Y-105007657D01*
X136732885Y-105102895D01*
X136685266Y-105245752D01*
X136113838Y-105817180D01*
X136732885Y-105817180D01*
M02*
